<?xml version="1.0" encoding="UTF-8"?>
<svg width="35px" height="48px" viewBox="0 0 35 48" version="1.1" xmlns="http://www.w3.org/2000/svg" xmlns:xlink="http://www.w3.org/1999/xlink">
    <title>hydrant_ic</title>
    <defs>
        <filter id="filter-1">
            <feColorMatrix in="SourceGraphic" type="matrix" values="0 0 0 0 0.882303 0 0 0 0 0.305268 0 0 0 0 0.000000 0 0 0 1.000000 0"></feColorMatrix>
        </filter>
    </defs>
    <g id="Page-1" stroke="none" stroke-width="1" fill="none" fill-rule="evenodd">
        <g filter="url(#filter-1)" id="hydrant_ic">
            <g>
                <g id="hydrant-svgrepo-com" transform="translate(10.138201, 6.383312)" fill="#000000" fill-rule="nonzero">
                    <path d="M9.97388766,2.70855495 C9.37842705,2.11812027 8.62439437,1.74503112 7.80901329,1.62916171 L7.80901329,0 L6.73285857,0 L6.73285857,1.62592494 C5.90889488,1.73783447 5.14624528,2.11274861 4.5450515,2.70855495 C3.94636383,3.30257073 3.56430093,4.05993999 3.44198175,4.88135593 L3.987217,4.88135593 L4.53571363,4.88135593 L9.98319119,4.88135593 L10.5316878,4.88135593 L11.0769231,4.88135593 C10.9546382,4.05993999 10.5726097,3.30257073 9.97388766,2.70855495 Z" id="Path"></path>
                    <path d="M7.25945241,9.26205997 C6.84519341,9.26205997 6.50847458,9.59907735 6.50847458,10.0132302 C6.50847458,10.4269983 6.84519341,10.7640156 7.25945241,10.7640156 C7.67371141,10.7640156 8.01043025,10.4269983 8.01043025,10.0132302 C8.01046524,9.59904237 7.67371141,9.26205997 7.25945241,9.26205997 Z" id="Path"></path>
                    <polygon id="Path" points="10.910769 16.5840939 10.3723486 16.5840939 4.14655618 16.5840939 3.60813582 16.5840939 2.69100391 16.5840939 2.69100391 17.6479791 3.60813582 17.6479791 10.910769 17.6479791 11.8279009 17.6479791 11.8279009 16.5840939"></polygon>
                    <path d="M13.495161,9.73954658 L13.495161,8.35707211 L13.4951266,8.35707211 L13.4951266,7.62869084 L12.4182633,7.62869084 L12.4182633,8.35707211 L10.8794554,8.35707211 L10.8794554,5.9452412 L10.3410066,5.9452412 L9.80259212,5.9452412 L4.65376557,5.9452412 L4.11535112,5.9452412 L3.57693666,5.9452412 L3.57693666,8.35707211 L2.03812871,8.35707211 L2.03812871,7.62869084 L0.961231089,7.62869084 L0.961231089,8.35707211 L0.961196736,8.35707211 L0.961196736,9.73958102 L0,9.73958102 L0,10.8191861 L0.961196736,10.8191861 L0.961196736,12.0590771 L0.961231089,12.0590771 L0.961231089,12.9300763 L2.03809435,12.9300763 L2.03809435,12.0590426 L3.57690231,12.0590426 L3.57690231,15.4576271 L4.11531676,15.4576271 L4.65373122,15.4576271 L9.80255777,15.4576271 L10.3409722,15.4576271 L10.879421,15.4576271 L10.879421,12.0590426 L12.418229,12.0590426 L12.418229,12.9300418 L13.4950922,12.9300418 L13.4950922,12.0590426 L13.4951266,12.0590426 L13.4951266,10.8191516 L14.4563233,10.8191516 L14.4563233,9.73954658 L13.495161,9.73954658 Z M7.23965274,11.7812114 C6.23925924,11.7812114 5.42550555,10.9650414 5.42550555,9.96244523 C5.42550555,8.95950462 6.23925924,8.14330018 7.23965274,8.14330018 C8.24004625,8.14330018 9.05379994,8.95947018 9.05379994,9.96244523 C9.05379994,10.9650414 8.2400806,11.7812114 7.23965274,11.7812114 Z" id="Shape"></path>
                </g>
                <g id="location-pin-svgrepo-com" fill="#000000" fill-rule="nonzero">
                    <path d="M17.3350717,0 L17.3350717,0 C7.74446941,0 0,7.75021908 0,17.3479417 C0,20.6943631 1.06820268,23.8897308 2.55439771,26.5156258 L13.8518021,46.0827794 C14.5600669,47.3609265 15.9882075,48 17.3350717,48 C18.6820521,48 20.0404111,47.3609265 20.8183413,46.0827794 L32.1157457,26.5272454 C33.6135516,23.9011179 34.6701434,20.7638478 34.6701434,17.3593288 C34.6701434,7.7618386 26.925674,0 17.3350717,0 Z M17.3591528,30.7716718 C9.83215018,30.7716718 3.68509804,24.6246197 3.68509804,17.0976171 C3.68509804,9.57061445 9.83215018,3.42356231 17.3591528,3.42356231 C24.8861554,3.42356231 31.0332076,9.57061445 31.0332076,17.0976171 C31.0332076,24.6497097 24.8861554,30.7716718 17.3591528,30.7716718 Z" id="Shape"></path>
                </g>
            </g>
        </g>
    </g>
</svg>