<svg xmlns="http://www.w3.org/2000/svg" xmlns:xlink="http://www.w3.org/1999/xlink" width="64" height="64" viewBox="0 0 64 64"><defs><style>.a{fill:none;}.b{fill:#fff7ef;}.c{clip-path:url(#a);}.d{fill:#fff;}.e{fill:#f77f00;}.f{opacity:0.2;}.g{clip-path:url(#c);}.h{fill:#231f20;}.i{clip-path:url(#d);}</style><clipPath id="a"><rect class="a" width="27.142" height="48"/></clipPath><clipPath id="c"><rect class="a" width="3.541" height="11.623"/></clipPath><clipPath id="d"><rect class="a" width="14.323" height="30.995"/></clipPath></defs><g transform="translate(-581 -555)"><circle class="b" cx="32" cy="32" r="32" transform="translate(581 555)"/><g transform="translate(599 563)"><g class="c"><g transform="translate(0 0)"><g class="c"><path class="d" d="M12.628,6.4h0A11.622,11.622,0,0,0,1,18.026V37.4H24.251V18.026A11.622,11.622,0,0,0,12.628,6.4" transform="translate(0.942 6)"/><rect class="d" width="25.205" height="3.632" transform="translate(0.969 43.399)"/><rect class="e" width="11.623" height="11.623" transform="translate(7.758 20.153)"/><g class="f" transform="translate(7.926 20.152)"><g class="g"><rect class="h" width="3.541" height="11.623" transform="translate(0.001 0)"/></g></g><path class="h" d="M24.72,38.835H1.474A.969.969,0,0,1,.5,37.867V18.495a12.592,12.592,0,0,1,25.183,0V37.867a.969.969,0,0,1-.969.969M2.442,36.9H23.751v-18.4a10.655,10.655,0,1,0-21.309,0Z" transform="translate(0.473 5.532)"/><g class="f" transform="translate(0.598 12.404)"><g class="i"><path class="h" d="M14.632,6.731A11.588,11.588,0,0,0,.308,18.027V37.4h5.4V18.027a11.619,11.619,0,0,1,8.923-11.3" transform="translate(-0.309 -6.402)"/></g></g><path class="h" d="M26.173,27.472H.969A.969.969,0,0,1,0,26.5V22.872A.969.969,0,0,1,.969,21.9h25.2a.968.968,0,0,1,.969.969V26.5a.968.968,0,0,1-.969.969M1.937,25.535H25.2v-1.7H1.937Z" transform="translate(0 20.527)"/><path class="h" d="M22.9,17.3H20.848V2.048H3.524V17.3H1.478V1.025A1.024,1.024,0,0,1,2.5,0H21.873A1.024,1.024,0,0,1,22.9,1.025Z" transform="translate(1.385 0)"/><path class="h" d="M16.1,23.463H4.474a.969.969,0,0,1-.969-.969V10.872A.969.969,0,0,1,4.474,9.9H16.1a.968.968,0,0,1,.969.969V22.495a.968.968,0,0,1-.969.969M5.442,21.526h9.686V11.84H5.442Z" transform="translate(3.285 9.281)"/><path class="h" d="M11.786,7.715H5.975a.968.968,0,0,1-.969-.969V2.872A.968.968,0,0,1,5.975,1.9h5.812a.969.969,0,0,1,.969.969V6.746a.969.969,0,0,1-.969.969M6.943,5.777h3.874V3.84H6.943Z" transform="translate(4.692 1.783)"/><path class="h" d="M11.317,9.158H9.379V5.841H7.442V9.158H5.505V4.873A.968.968,0,0,1,6.474,3.9h3.874a.968.968,0,0,1,.969.969Z" transform="translate(5.159 3.658)"/></g></g></g></g></g></svg>