<svg xmlns="http://www.w3.org/2000/svg" xmlns:xlink="http://www.w3.org/1999/xlink" width="64" height="64" viewBox="0 0 64 64"><defs><style>.a{fill:none;}.b{fill:#fff7ef;}.c{clip-path:url(#a);}.d{fill:#fff;}.e{fill:#f77f00;}.f{opacity:0.2;}.g{clip-path:url(#c);}.h{fill:#231f20;}.i{clip-path:url(#d);}.j{clip-path:url(#e);}</style><clipPath id="a"><rect class="a" width="49" height="48.528"/></clipPath><clipPath id="c"><rect class="a" width="12.951" height="25.561"/></clipPath><clipPath id="d"><rect class="a" width="26.25" height="22.971"/></clipPath><clipPath id="e"><rect class="a" width="7.455" height="23.431"/></clipPath></defs><g transform="translate(-581 -555)"><circle class="b" cx="32" cy="32" r="32" transform="translate(581 555)"/><g transform="translate(589 563)"><g class="c"><g transform="translate(0 0)"><g class="c"><path class="d" d="M46.956,21.251l-5.847-5.387V2.168h-8.52V8.013L24.8.837a1.276,1.276,0,0,0-1.732,0L.914,21.251a1.278,1.278,0,0,0,.867,2.217H7.027V42.64a4.259,4.259,0,0,0,4.26,4.26H36.849a4.259,4.259,0,0,0,4.26-4.26V23.469h4.98a1.278,1.278,0,0,0,.867-2.217" transform="translate(0.564 0.563)"/><path class="e" d="M26.549,23.013c0-5.43-6.2-8.109-6.955-15.731-5.824,1.685-8.606,8.635-6.5,14.027-2.931-1.246-3.832-5.129-3.832-5.129a11.834,11.834,0,0,0-2.375,6.833,9.831,9.831,0,0,0,19.663,0" transform="translate(7.782 8.229)"/><g class="f" transform="translate(14.669 15.512)"><g class="g"><path class="h" d="M11.1,21.309c-1.466-4.735,1.621-9.83,5.813-12.45-.06-.345-.207-1.21-.243-1.576C12,8.632,9.3,13.363,9.485,17.964c.573,1.193,0,2.66,1.612,3.344" transform="translate(-3.961 -7.282)"/><path class="h" d="M9.366,18.291a10.945,10.945,0,0,1,.948-4.341,10.429,10.429,0,0,1-1.052-2.49,11.824,11.824,0,0,0-2.375,6.831,9.83,9.83,0,0,0,9.83,9.83A9.853,9.853,0,0,0,17.957,28a9.8,9.8,0,0,1-8.591-9.707" transform="translate(-6.886 -2.561)"/></g></g><path class="h" d="M37.412,48.528H11.853A5.333,5.333,0,0,1,6.528,43.2V25.1H2.344A2.344,2.344,0,0,1,.758,21.03L22.913.616a2.355,2.355,0,0,1,3.176,0l6,5.53V2.731a1.064,1.064,0,0,1,1.063-1.065h8.522a1.065,1.065,0,0,1,1.065,1.065V15.959l5.5,5.072A2.342,2.342,0,0,1,46.654,25.1H42.739V43.2a5.333,5.333,0,0,1-5.327,5.325M24.5,2.126a.215.215,0,0,0-.143.055L2.2,22.6a.213.213,0,0,0,.143.371H7.593a1.065,1.065,0,0,1,1.065,1.065V43.2a3.2,3.2,0,0,0,3.2,3.2H37.412a3.2,3.2,0,0,0,3.2-3.2V24.032a1.066,1.066,0,0,1,1.067-1.065h4.98a.2.2,0,0,0,.2-.136A.2.2,0,0,0,46.8,22.6l-5.847-5.387a1.066,1.066,0,0,1-.345-.784V3.8h-6.39V8.574a1.064,1.064,0,0,1-1.785.784L24.644,2.181a.22.22,0,0,0-.145-.055" transform="translate(0.001 0)"/><g class="f" transform="translate(0.659 0.858)"><g class="i"><path class="h" d="M7.029,23.373a1.233,1.233,0,0,1-.675-2.217L26.56,2.536,24.611.741a1.276,1.276,0,0,0-1.732,0L.724,21.155a1.278,1.278,0,0,0,.867,2.217Z" transform="translate(-0.309 -0.403)"/></g></g><g class="f" transform="translate(6.932 24.032)"><g class="j"><path class="h" d="M3.4,11.282,3.254,30.453c0,2.352,1.438,4.26,3.212,4.26h4.243c-1.772,0-3.21-1.909-3.21-4.26V11.282Z" transform="translate(-3.254 -11.282)"/></g></g><path class="h" d="M17.282,34.474a10.909,10.909,0,0,1-10.9-10.9A12.843,12.843,0,0,1,9,16.071a1.065,1.065,0,0,1,1.86.43,9.017,9.017,0,0,0,1.069,2.441,12.475,12.475,0,0,1,1.25-6.371,10.807,10.807,0,0,1,6.68-5.747,1.069,1.069,0,0,1,1.357.92c.366,3.706,2.111,6.141,3.8,8.5,1.625,2.266,3.161,4.409,3.161,7.336a10.91,10.91,0,0,1-10.9,10.9M9.6,19.146a10.2,10.2,0,0,0-1.086,4.431,8.766,8.766,0,1,0,17.533,0c0-2.243-1.28-4.028-2.763-6.094a19.879,19.879,0,0,1-4-8.177,8.881,8.881,0,0,0-4.2,4.209,10.057,10.057,0,0,0-.439,7.973,1.067,1.067,0,0,1-1.41,1.368A7.589,7.589,0,0,1,9.6,19.146" transform="translate(7.218 7.665)"/></g></g></g></g></g></svg>