<svg xmlns="http://www.w3.org/2000/svg" xmlns:xlink="http://www.w3.org/1999/xlink" width="64" height="64" viewBox="0 0 64 64"><defs><style>.a{fill:none;}.b{fill:#fff7ef;}.c{clip-path:url(#a);}.d{fill:#f77f00;}.e{opacity:0.2;}.f{clip-path:url(#c);}.g{fill:#231f20;}.h{fill:#fff;}.i{clip-path:url(#d);}</style><clipPath id="a"><rect class="a" width="43" height="41.13"/></clipPath><clipPath id="c"><rect class="a" width="22.268" height="18.696"/></clipPath><clipPath id="d"><rect class="a" width="12.871" height="33.652"/></clipPath></defs><g transform="translate(-581 -555)"><circle class="b" cx="32" cy="32" r="32" transform="translate(581 555)"/><g transform="translate(592 566)"><g class="c"><g transform="translate(0 0)"><g class="c"><path class="d" d="M41.63,20.848c0-2.485-2.131-4.741-5.609-6.416A35.622,35.622,0,0,0,21.065,11.5,35.621,35.621,0,0,0,6.109,14.431C2.631,16.107.5,18.363.5,20.848.5,26.01,9.708,30.2,21.065,30.2S41.63,26.01,41.63,20.848" transform="translate(0.435 10)"/><g class="e" transform="translate(0.935 21.5)"><g class="f"><path class="g" d="M3.906,20.848c0-2.485,2.131-4.741,5.609-6.416a34.387,34.387,0,0,1,13.253-2.892c-.563-.021-1.127-.039-1.7-.039A35.628,35.628,0,0,0,6.109,14.431C2.631,16.107.5,18.363.5,20.848.5,26.01,9.708,30.2,21.065,30.2c.576,0,1.14-.019,1.7-.039C12.209,29.762,3.906,25.75,3.906,20.848" transform="translate(-0.5 -11.5)"/></g></g><path class="g" d="M21.5,30.158C9.443,30.158,0,25.641,0,19.876c0-2.774,2.18-5.353,6.138-7.258L6.949,14.3c-3.275,1.576-5.08,3.556-5.08,5.573,0,4.56,8.991,8.413,19.63,8.413s19.63-3.853,19.63-8.413c0-2.017-1.8-4-5.08-5.573l.811-1.684C40.82,14.523,43,17.1,43,19.876c0,5.766-9.443,10.283-21.5,10.283" transform="translate(0 10.972)"/><path class="h" d="M27.569,23.146a11.006,11.006,0,1,1-22.012,0C5.557,15.9,16.563.5,16.563.5S27.569,15.739,27.569,23.146" transform="translate(4.832 0.435)"/><g class="e" transform="translate(10.283 0.935)"><g class="i"><path class="g" d="M9.215,23.146c0-5.366,6.024-15.183,9.155-19.928C17.263,1.553,16.506.5,16.506.5S5.5,15.9,5.5,23.146A11.006,11.006,0,0,0,16.506,34.152a10.848,10.848,0,0,0,1.856-.17A11,11,0,0,1,9.215,23.146" transform="translate(-5.5 -0.5)"/></g></g><path class="g" d="M17,35.522A11.955,11.955,0,0,1,5.058,23.583c0-7.461,10.724-22.553,11.18-23.19A.942.942,0,0,1,17,0h0a.932.932,0,0,1,.757.389c.456.632,11.184,15.572,11.184,23.194A11.954,11.954,0,0,1,17,35.522M17,2.571C14.542,6.177,6.928,17.8,6.928,23.583a10.071,10.071,0,0,0,20.143,0c0-5.912-7.6-17.432-10.068-21.012" transform="translate(4.398 0)"/></g></g></g></g></g></svg>