<?xml version="1.0" encoding="utf-8"?>
<!-- Generator: Adobe Illustrator 25.4.1, SVG Export Plug-In . SVG Version: 6.00 Build 0)  -->
<svg version="1.1" id="Layer_1" xmlns="http://www.w3.org/2000/svg" xmlns:xlink="http://www.w3.org/1999/xlink" x="0px" y="0px"
	 viewBox="0 0 654 672" style="enable-background:new 0 0 654 672;" xml:space="preserve">
<style type="text/css">
	.st0{fill-rule:evenodd;clip-rule:evenodd;fill:#FE5629;}
	.st1{fill:#F7F7FA;}
	.st2{clip-path:url(#SVGID_00000113340531594418512790000002212968124552543636_);}
	.st3{fill:#C4E2F2;}
	.st4{fill:#83B2C6;}
	.st5{fill:#E6E6E6;}
	.st6{fill:#FFE14D;}
	.st7{fill:#FFBE1D;}
	.st8{fill:#FF491F;}
	.st9{fill:#ED3618;}
	.st10{fill:#2C92BF;}
	.st11{fill:#1F81A3;}
	.st12{clip-path:url(#SVGID_00000159463720881264978650000014378297766325155772_);}
	.st13{fill:#CCCCCC;}
	.st14{fill:#32CC77;}
	.st15{clip-path:url(#SVGID_00000005976140744029637750000003805278155800135310_);}
	.st16{fill:#E5E5E5;}
	.st17{fill:#3C3F4D;}
	.st18{clip-path:url(#SVGID_00000018924818842785481540000012573400807426976418_);}
	.st19{fill:#2D303B;}
	.st20{clip-path:url(#SVGID_00000017494941047307001700000015665329248679689648_);}
	.st21{fill:#FF8E1D;}
	.st22{fill:#E2720E;}
	.st23{clip-path:url(#SVGID_00000026867697838470251210000014284772968365612467_);}
	.st24{clip-path:url(#SVGID_00000004520406090432953370000012941695755821952432_);}
	.st25{clip-path:url(#SVGID_00000062913264697423491800000014480755075078416057_);}
	.st26{fill:#1A202C;stroke:#4A5568;stroke-width:2;}
	.st27{fill:none;}
	.st28{fill:#A3ACB1;}
	.st29{fill:url(#SVGID_00000049903870488265577090000004412174171408522652_);}
	.st30{fill:#647279;}
	.st31{fill:url(#SVGID_00000089540314081258309230000007956260815226622864_);}
	.st32{fill-rule:evenodd;clip-rule:evenodd;fill:#96A1A8;}
	.st33{fill-rule:evenodd;clip-rule:evenodd;fill:url(#SVGID_00000042014346357295528360000006126046066588432574_);}
	.st34{fill:#2B2B2B;}
	.st35{fill:#FF5629;}
	.st36{fill:#FFFFFF;}
	.st37{font-family:'GMVURWGeometric-Regular';}
	.st38{font-size:26.5676px;}
</style>
<path class="st0" d="M625.2,343h-1.4c0-0.6,0-1.2,0-1.7c0-0.6,0-1.2,0-1.7h1.4c0,0.6,0,1.2,0,1.8C625.2,341.8,625.2,342.4,625.2,343
	z M625.2,336h-1.4c0-1.2,0-2.3-0.1-3.5h1.4C625.1,333.7,625.1,334.8,625.2,336z M625,329l-1.4,0.1c0-1.2-0.1-2.3-0.2-3.4l1.4-0.1
	C624.9,326.7,624.9,327.9,625,329z M624.6,322.1l-1.4,0.1c-0.1-1.2-0.2-2.3-0.2-3.5l1.4-0.1C624.4,319.8,624.5,320.9,624.6,322.1z
	 M624.1,315.1c-0.1-1.2-0.2-2.3-0.3-3.5l-1.4,0.1c0.1,1.1,0.2,2.3,0.3,3.4H624.1z M623.4,308.2l-1.4,0.2c-0.1-1.2-0.3-2.3-0.4-3.5
	l1.4-0.2C623.2,305.9,623.3,307.1,623.4,308.2z M622.6,301.3l-1.4,0.2c-0.2-1.1-0.3-2.3-0.5-3.4l1.4-0.2
	C622.3,299,622.4,300.1,622.6,301.3z M621.6,294.4l-1.4,0.2c-0.2-1.1-0.4-2.3-0.6-3.4l1.4-0.2C621.2,292.1,621.4,293.3,621.6,294.4z
	 M620.4,287.5l-1.4,0.2c-0.2-1.1-0.4-2.3-0.6-3.4l1.4-0.3C620,285.3,620.2,286.4,620.4,287.5z M619.1,280.7l-1.4,0.3
	c-0.2-1.1-0.5-2.3-0.7-3.4l1.4-0.3C618.6,278.4,618.9,279.6,619.1,280.7z M617.6,273.9l-1.4,0.3c-0.3-1.1-0.5-2.3-0.8-3.4l1.4-0.3
	C617.1,271.6,617.4,272.8,617.6,273.9z M616,267.1l-1.4,0.3c-0.3-1.1-0.6-2.2-0.9-3.4l1.3-0.4C615.4,264.9,615.7,266,616,267.1z
	 M614.2,260.4l-1.3,0.4c-0.3-1.1-0.6-2.2-0.9-3.3l1.3-0.4C613.6,258.2,613.9,259.3,614.2,260.4z M612.3,253.7l-1.3,0.4
	c-0.3-1.1-0.7-2.2-1-3.3l1.3-0.4C611.6,251.5,612,252.6,612.3,253.7z M610.2,247.1l-1.3,0.4c-0.4-1.1-0.7-2.2-1.1-3.3l1.3-0.5
	C609.5,244.9,609.8,246,610.2,247.1z M607.9,240.5c-0.4-1.1-0.8-2.2-1.2-3.3l-1.3,0.5c0.4,1.1,0.8,2.2,1.2,3.3L607.9,240.5z
	 M605.5,233.9l-1.3,0.5c-0.4-1.1-0.8-2.2-1.3-3.2l1.3-0.5C604.7,231.8,605.1,232.9,605.5,233.9z M603,227.5l-1.3,0.5
	c-0.4-1.1-0.9-2.1-1.3-3.2l1.3-0.5C602.1,225.3,602.5,226.4,603,227.5z M600.3,221.1l-1.3,0.6c-0.5-1.1-0.9-2.1-1.4-3.2l1.3-0.6
	C599.3,218.9,599.8,220,600.3,221.1z M597.4,214.7l-1.3,0.6c-0.5-1-1-2.1-1.5-3.1l1.3-0.6C596.4,212.6,596.9,213.6,597.4,214.7z
	 M594.4,208.4l-1.3,0.6c-0.5-1-1-2.1-1.5-3.1l1.2-0.6C593.4,206.3,593.9,207.4,594.4,208.4z M591.3,202.2l-1.2,0.6
	c-0.5-1-1.1-2-1.6-3.1l1.2-0.7C590.2,200.1,590.7,201.2,591.3,202.2z M588,196.1l-1.2,0.7c-0.6-1-1.1-2-1.7-3l1.2-0.7
	C586.9,194,587.4,195,588,196.1z M584.6,190l-1.2,0.7c-0.6-1-1.2-2-1.8-3l1.2-0.7C583.4,188,584,189,584.6,190z M581,184l-1.2,0.7
	c-0.6-1-1.2-2-1.8-2.9l1.2-0.7C579.8,182,580.4,183,581,184z M577.3,178.1l-1.2,0.8c-0.6-1-1.3-1.9-1.9-2.9l1.2-0.8
	C576,176.2,576.7,177.2,577.3,178.1z M573.5,172.3c-0.7-1-1.3-1.9-2-2.9l-1.1,0.8c0.7,0.9,1.3,1.9,2,2.9L573.5,172.3z M569.5,166.6
	l-1.1,0.8c-0.7-0.9-1.3-1.9-2-2.8l1.1-0.8C568.1,164.7,568.8,165.7,569.5,166.6z M565.4,161l-1.1,0.8c-0.7-0.9-1.4-1.8-2.1-2.8
	l1.1-0.8C564,159.1,564.7,160,565.4,161z M561.1,155.4c-0.7-0.9-1.4-1.8-2.2-2.7l-1.1,0.9c0.7,0.9,1.4,1.8,2.2,2.7L561.1,155.4z
	 M556.8,150l-1.1,0.9c-0.7-0.9-1.5-1.8-2.2-2.7l1.1-0.9C555.3,148.2,556,149.1,556.8,150z M552.3,144.7l-1.1,0.9
	c-0.8-0.9-1.5-1.7-2.3-2.6l1-0.9C550.8,142.9,551.5,143.8,552.3,144.7z M547.7,139.5c-0.8-0.9-1.6-1.7-2.3-2.6l-1,0.9
	c0.8,0.8,1.6,1.7,2.3,2.6L547.7,139.5z M543,134.3l-1,1c-0.8-0.8-1.6-1.7-2.4-2.5l1-1C541.4,132.7,542.2,133.5,543,134.3z
	 M538.1,129.3l-1,1c-0.8-0.8-1.6-1.6-2.5-2.4l1-1C536.5,127.7,537.3,128.5,538.1,129.3z M533.2,124.4c-0.8-0.8-1.7-1.6-2.5-2.4l-1,1
	c0.8,0.8,1.7,1.6,2.5,2.4L533.2,124.4z M528.1,119.7l-0.9,1c-0.8-0.8-1.7-1.6-2.6-2.3l0.9-1C526.4,118.1,527.3,118.9,528.1,119.7z
	 M523,115l-0.9,1c-0.9-0.8-1.7-1.5-2.6-2.3l0.9-1.1C521.2,113.5,522.1,114.2,523,115z M517.7,110.5l-0.9,1.1
	c-0.9-0.7-1.8-1.5-2.7-2.2l0.9-1.1C515.9,109,516.8,109.7,517.7,110.5z M512.3,106l-0.9,1.1c-0.9-0.7-1.8-1.4-2.7-2.2l0.9-1.1
	C510.5,104.6,511.4,105.3,512.3,106z M506.8,101.7l-0.8,1.1c-0.9-0.7-1.8-1.4-2.8-2.1l0.8-1.1C505,100.3,505.9,101,506.8,101.7z
	 M501.2,97.6l-0.8,1.1c-0.9-0.7-1.9-1.4-2.8-2l0.8-1.1C499.4,96.2,500.3,96.9,501.2,97.6z M495.6,93.5l-0.8,1.1
	c-0.9-0.7-1.9-1.3-2.9-2l0.8-1.2C493.7,92.2,494.6,92.9,495.6,93.5z M489.8,89.6c-1-0.6-1.9-1.3-2.9-1.9l-0.8,1.2
	c1,0.6,1.9,1.3,2.9,1.9L489.8,89.6z M484,85.9l-0.7,1.2c-1-0.6-2-1.2-2.9-1.8L481,84C482,84.6,483,85.2,484,85.9z M478,82.2
	l-0.7,1.2c-1-0.6-2-1.2-3-1.8l0.7-1.2C476,81,477,81.6,478,82.2z M472,78.7l-0.7,1.2c-1-0.6-2-1.1-3-1.7L469,77
	C470,77.6,471,78.1,472,78.7z M465.9,75.4c-1-0.5-2-1.1-3.1-1.6l-0.6,1.2c1,0.5,2,1.1,3.1,1.6L465.9,75.4z M459.7,72.1l-0.6,1.2
	c-1-0.5-2.1-1-3.1-1.5l0.6-1.3C457.6,71.1,458.7,71.6,459.7,72.1z M453.5,69.1c-1-0.5-2.1-1-3.1-1.5l-0.6,1.3c1,0.5,2.1,1,3.1,1.5
	L453.5,69.1z M447.1,66.1l-0.6,1.3c-1.1-0.5-2.1-0.9-3.2-1.4l0.6-1.3C445,65.2,446.1,65.7,447.1,66.1z M440.8,63.4l-0.5,1.3
	c-1.1-0.4-2.1-0.9-3.2-1.3l0.5-1.3C438.6,62.5,439.7,62.9,440.8,63.4z M434.3,60.7l-0.5,1.3c-1.1-0.4-2.2-0.8-3.2-1.3l0.5-1.3
	C432.2,59.9,433.2,60.3,434.3,60.7z M427.8,58.3l-0.5,1.3c-1.1-0.4-2.2-0.8-3.3-1.2l0.5-1.3C425.6,57.5,426.7,57.9,427.8,58.3z
	 M421.2,55.9l-0.5,1.3c-1.1-0.4-2.2-0.7-3.3-1.1l0.4-1.3C419,55.2,420.2,55.6,421.2,55.9z M414.6,53.8l-0.4,1.3
	c-1.1-0.3-2.2-0.7-3.3-1l0.4-1.3C412.4,53.1,413.5,53.4,414.6,53.8z M408,51.7l-0.4,1.3c-1.1-0.3-2.2-0.6-3.3-0.9l0.4-1.3
	C405.7,51.1,406.9,51.4,408,51.7z M401.3,49.9l-0.4,1.4c-1.1-0.3-2.2-0.6-3.4-0.9l0.3-1.4C399,49.3,400.1,49.6,401.3,49.9z
	 M394.5,48.2l-0.3,1.4c-1.1-0.3-2.2-0.5-3.4-0.8l0.3-1.4C392.3,47.6,393.4,47.9,394.5,48.2z M387.7,46.6l-0.3,1.4
	c-1.1-0.2-2.3-0.5-3.4-0.7l0.3-1.4C385.4,46.1,386.6,46.4,387.7,46.6z M380.9,45.2l-0.3,1.4c-1.1-0.2-2.3-0.4-3.4-0.6l0.2-1.4
	C378.6,44.8,379.8,45,380.9,45.2z M374,44l-0.2,1.4c-1.1-0.2-2.3-0.4-3.4-0.6l0.2-1.4C371.8,43.6,372.9,43.8,374,44z M367.2,42.9
	l-0.2,1.4c-1.1-0.2-2.3-0.3-3.4-0.5l0.2-1.4C364.9,42.6,366,42.8,367.2,42.9z M360.3,42l-0.2,1.4c-1.1-0.1-2.3-0.3-3.4-0.4l0.2-1.4
	C358,41.7,359.1,41.9,360.3,42z M353.3,41.2l-0.1,1.4c-1.1-0.1-2.3-0.2-3.4-0.3l0.1-1.4C351,41,352.2,41.1,353.3,41.2z M346.4,40.7
	l-0.1,1.4c-1.2-0.1-2.3-0.2-3.5-0.2l0.1-1.4C344.1,40.5,345.2,40.6,346.4,40.7z M339.4,40.2l-0.1,1.4c-1.1-0.1-2.3-0.1-3.4-0.2
	L336,40C337.1,40.1,338.3,40.2,339.4,40.2z M332.5,39.9v1.4c-1.2,0-2.3-0.1-3.5-0.1v-1.4C330.2,39.9,331.3,39.9,332.5,39.9z
	 M325.5,39.8v1.4c-0.6,0-1.2,0-1.7,0s-1.2,0-1.7,0v-1.4c0.6,0,1.2,0,1.7,0C324.4,39.8,324.9,39.8,325.5,39.8z M318.5,39.9v1.4
	c-1.2,0-2.3,0-3.5,0.1V40C316.2,39.9,317.4,39.9,318.5,39.9z M311.6,40.1l0.1,1.4c-1.2,0-2.3,0.1-3.4,0.2l-0.1-1.4
	C309.3,40.2,310.4,40.1,311.6,40.1z M304.6,40.4l0.1,1.4c-1.2,0.1-2.3,0.2-3.5,0.2l-0.1-1.4C302.3,40.6,303.5,40.5,304.6,40.4z
	 M297.7,40.9l0.1,1.4c-1.1,0.1-2.3,0.2-3.4,0.3l-0.1-1.4C295.4,41.1,296.5,41,297.7,40.9z M290.8,41.6L291,43
	c-1.2,0.1-2.3,0.3-3.5,0.4l-0.2-1.4C288.4,41.9,289.6,41.7,290.8,41.6z M283.8,42.4l0.2,1.4c-1.1,0.2-2.3,0.3-3.4,0.5l-0.2-1.4
	C281.5,42.8,282.7,42.6,283.8,42.4z M277,43.4l0.2,1.4c-1.1,0.2-2.3,0.4-3.4,0.6l-0.2-1.4C274.7,43.8,275.8,43.6,277,43.4z
	 M270.1,44.6l0.2,1.4c-1.1,0.2-2.3,0.4-3.4,0.6l-0.3-1.4C267.8,45,268.9,44.8,270.1,44.6z M263.2,45.9l0.3,1.4
	c-1.1,0.2-2.3,0.5-3.4,0.7l-0.3-1.4C261,46.4,262.1,46.1,263.2,45.9z M256.4,47.4l0.3,1.4c-1.1,0.3-2.3,0.5-3.4,0.8l-0.3-1.4
	C254.2,47.9,255.3,47.6,256.4,47.4z M249.7,49c-1.1,0.3-2.3,0.6-3.4,0.9l0.4,1.4c1.1-0.3,2.2-0.6,3.4-0.9L249.7,49z M242.9,50.8
	l0.4,1.3c-1.1,0.3-2.2,0.6-3.3,0.9l-0.4-1.3C240.7,51.4,241.8,51.1,242.9,50.8z M236.2,52.7l0.4,1.3c-1.1,0.3-2.2,0.7-3.3,1
	l-0.4-1.3C234,53.4,235.1,53.1,236.2,52.7z M229.6,54.8l0.4,1.3c-1.1,0.4-2.2,0.7-3.3,1.1l-0.5-1.3
	C227.4,55.6,228.5,55.2,229.6,54.8z M223,57.1l0.5,1.3c-1.1,0.4-2.2,0.8-3.3,1.2l-0.5-1.3C220.8,57.9,221.9,57.5,223,57.1z
	 M216.5,59.5l0.5,1.3c-1.1,0.4-2.2,0.8-3.2,1.3l-0.5-1.3C214.3,60.3,215.4,59.9,216.5,59.5z M210,62l0.5,1.3
	c-1.1,0.4-2.1,0.9-3.2,1.3l-0.5-1.3C207.9,62.9,208.9,62.5,210,62z M203.6,64.7l0.6,1.3c-1.1,0.5-2.1,0.9-3.2,1.4l-0.6-1.3
	C201.5,65.7,202.5,65.2,203.6,64.7z M197.2,67.6l0.6,1.3c-1,0.5-2.1,1-3.1,1.5l-0.6-1.3C195.1,68.6,196.2,68.1,197.2,67.6z
	 M191,70.6l0.6,1.3c-1,0.5-2.1,1-3.1,1.5l-0.6-1.2C188.9,71.6,189.9,71.1,191,70.6z M184.7,73.7l0.6,1.2c-1,0.5-2,1.1-3.1,1.6
	l-0.7-1.2C182.7,74.8,183.7,74.3,184.7,73.7z M178.6,77l0.7,1.2c-1,0.6-2,1.1-3,1.7l-0.7-1.2C176.6,78.1,177.6,77.6,178.6,77z
	 M172.5,80.4l0.7,1.2c-1,0.6-2,1.2-3,1.8l-0.7-1.2C170.5,81.6,171.5,81,172.5,80.4z M166.6,84l0.7,1.2c-1,0.6-2,1.2-2.9,1.8
	l-0.7-1.2C164.6,85.2,165.6,84.6,166.6,84z M160.7,87.7l0.8,1.2c-1,0.6-1.9,1.3-2.9,1.9l-0.8-1.2C158.7,89,159.7,88.3,160.7,87.7z
	 M154.9,91.6l0.8,1.2c-1,0.6-1.9,1.3-2.9,2l-0.8-1.1C152.9,92.9,153.9,92.2,154.9,91.6z M149.1,95.5l0.8,1.1c-0.9,0.7-1.9,1.3-2.8,2
	l-0.8-1.1C147.2,96.9,148.2,96.2,149.1,95.5z M143.5,99.6l0.8,1.1c-0.9,0.7-1.8,1.4-2.8,2.1l-0.8-1.1
	C141.7,101,142.6,100.3,143.5,99.6z M138,103.9c-0.9,0.7-1.8,1.4-2.7,2.2l0.9,1.1c0.9-0.7,1.8-1.4,2.7-2.2L138,103.9z M132.6,108.2
	l0.9,1.1c-0.9,0.7-1.8,1.5-2.7,2.2l-0.9-1.1C130.8,109.7,131.7,109,132.6,108.2z M127.2,112.7l0.9,1.1c-0.9,0.8-1.7,1.5-2.6,2.3
	l-0.9-1C125.5,114.2,126.3,113.5,127.2,112.7z M122,117.3l0.9,1c-0.9,0.8-1.7,1.6-2.6,2.3l-0.9-1C120.3,118.9,121.1,118.1,122,117.3
	z M116.9,122l1,1c-0.8,0.8-1.7,1.6-2.5,2.4l-1-1C115.2,123.6,116,122.8,116.9,122z M111.9,126.9l1,1c-0.8,0.8-1.6,1.6-2.5,2.4l-1-1
	C110.2,128.5,111,127.7,111.9,126.9z M107,131.8l1,1c-0.8,0.8-1.6,1.7-2.4,2.5l-1-1C105.4,133.5,106.2,132.7,107,131.8z
	 M102.2,136.9c-0.8,0.9-1.6,1.7-2.3,2.6l1,0.9c0.8-0.9,1.6-1.7,2.3-2.6L102.2,136.9z M97.5,142.1l1,0.9c-0.8,0.9-1.5,1.7-2.3,2.6
	l-1.1-0.9C96,143.8,96.8,142.9,97.5,142.1z M93,147.3l1.1,0.9c-0.7,0.9-1.5,1.8-2.2,2.7l-1.1-0.9C91.5,149.1,92.2,148.2,93,147.3z
	 M88.6,152.7l1.1,0.9c-0.7,0.9-1.4,1.8-2.2,2.7l-1.1-0.9C87.1,154.5,87.8,153.6,88.6,152.7z M84.3,158.2l1.1,0.8
	c-0.7,0.9-1.4,1.8-2.1,2.8l-1.1-0.8C82.9,160,83.6,159.1,84.3,158.2z M80.1,163.8l1.1,0.8c-0.7,0.9-1.4,1.9-2,2.8l-1.1-0.8
	C78.7,165.7,79.4,164.7,80.1,163.8z M76.1,169.4l1.1,0.8c-0.7,0.9-1.3,1.9-2,2.9l-1.2-0.8C74.7,171.4,75.4,170.4,76.1,169.4z
	 M72.2,175.2l1.2,0.8c-0.6,1-1.3,1.9-1.9,2.9l-1.2-0.8C70.9,177.2,71.5,176.2,72.2,175.2z M68.4,181.1l1.2,0.7c-0.6,1-1.2,2-1.8,2.9
	l-1.2-0.7C67.2,183,67.8,182,68.4,181.1z M64.7,187l1.2,0.7c-0.6,1-1.2,2-1.8,3L63,190C63.6,189,64.2,188,64.7,187z M61.3,193
	l1.2,0.7c-0.6,1-1.1,2-1.7,3l-1.2-0.7C60.1,195,60.7,194,61.3,193z M57.9,199.1l1.2,0.7c-0.5,1-1.1,2-1.6,3.1l-1.2-0.6
	C56.8,201.2,57.3,200.1,57.9,199.1z M54.7,205.3l1.2,0.6c-0.5,1-1,2.1-1.5,3.1l-1.3-0.6C53.6,207.4,54.2,206.3,54.7,205.3z
	 M51.6,211.6c-0.5,1-1,2.1-1.5,3.1l1.3,0.6c0.5-1,1-2.1,1.5-3.1L51.6,211.6z M48.7,217.9l1.3,0.6c-0.5,1.1-0.9,2.1-1.4,3.2l-1.3-0.6
	C47.7,220,48.2,218.9,48.7,217.9z M45.9,224.3l1.3,0.5c-0.4,1.1-0.9,2.1-1.3,3.2l-1.3-0.5C45,226.4,45.4,225.3,45.9,224.3z
	 M43.3,230.7l1.3,0.5c-0.4,1.1-0.8,2.2-1.3,3.2l-1.3-0.5C42.4,232.9,42.8,231.8,43.3,230.7z M40.8,237.2l1.3,0.5
	c-0.4,1.1-0.8,2.2-1.2,3.3l-1.3-0.5C40,239.4,40.4,238.3,40.8,237.2z M38.5,243.8c-0.4,1.1-0.7,2.2-1.1,3.3l1.3,0.4
	c0.4-1.1,0.7-2.2,1.1-3.3L38.5,243.8z M36.3,250.4l1.3,0.4c-0.3,1.1-0.7,2.2-1,3.3l-1.3-0.4C35.6,252.6,35.9,251.5,36.3,250.4z
	 M34.3,257l1.3,0.4c-0.3,1.1-0.6,2.2-0.9,3.3l-1.3-0.4C33.6,259.3,33.9,258.2,34.3,257z M32.4,263.8l1.4,0.4
	c-0.3,1.1-0.6,2.2-0.9,3.4l-1.4-0.3C31.8,266,32.1,264.9,32.4,263.8z M30.7,270.5l1.4,0.3c-0.3,1.1-0.5,2.2-0.8,3.4l-1.4-0.3
	C30.2,272.8,30.4,271.6,30.7,270.5z M29.1,277.3l1.4,0.3c-0.2,1.1-0.5,2.3-0.7,3.4l-1.4-0.3C28.7,279.6,28.9,278.4,29.1,277.3z
	 M27.8,284.1l1.4,0.3c-0.2,1.1-0.4,2.3-0.6,3.4l-1.4-0.2C27.3,286.4,27.5,285.3,27.8,284.1z M26.5,291l1.4,0.2
	c-0.2,1.1-0.4,2.3-0.6,3.4l-1.4-0.2C26.1,293.3,26.3,292.1,26.5,291z M25.5,297.9l1.4,0.2c-0.2,1.1-0.3,2.3-0.5,3.4l-1.4-0.2
	C25.1,300.1,25.3,299,25.5,297.9z M24.5,304.8l1.4,0.2c-0.1,1.1-0.3,2.3-0.4,3.5l-1.4-0.2C24.3,307.1,24.4,305.9,24.5,304.8z
	 M23.8,311.7l1.4,0.1c-0.1,1.1-0.2,2.3-0.3,3.4l-1.4-0.1C23.6,314,23.7,312.8,23.8,311.7z M23.2,318.6l1.4,0.1
	c-0.1,1.2-0.2,2.3-0.2,3.5l-1.4-0.1C23,320.9,23.1,319.8,23.2,318.6z M22.8,325.6l1.4,0.1c-0.1,1.1-0.1,2.3-0.2,3.4l-1.4-0.1
	C22.6,327.9,22.7,326.7,22.8,325.6z M22.5,332.5h1.4c0,1.2-0.1,2.3-0.1,3.5h-1.4C22.4,334.8,22.4,333.7,22.5,332.5z M22.4,339.5
	c0,0.6,0,1.2,0,1.8c0,0.6,0,1.2,0,1.8h1.4c0-0.6,0-1.2,0-1.7c0-0.6,0-1.2,0-1.7L22.4,339.5z M22.4,346.5h1.4c0,1.2,0,2.3,0.1,3.5
	h-1.4C22.4,348.8,22.4,347.6,22.4,346.5z M22.6,353.4l1.4-0.1c0,1.2,0.1,2.3,0.2,3.4l-1.4,0.1C22.7,355.7,22.6,354.6,22.6,353.4z
	 M23,360.4l1.4-0.1c0.1,1.2,0.2,2.3,0.2,3.5l-1.4,0.1C23.1,362.7,23,361.6,23,360.4z M23.5,367.3l1.4-0.1c0.1,1.1,0.2,2.3,0.3,3.4
	l-1.4,0.1C23.7,369.6,23.6,368.5,23.5,367.3z M24.1,374.3l1.4-0.2c0.1,1.2,0.3,2.3,0.4,3.5l-1.4,0.2
	C24.4,376.6,24.3,375.4,24.1,374.3z M25,381.2l1.4-0.2c0.2,1.1,0.3,2.3,0.5,3.4l-1.4,0.2C25.3,383.5,25.1,382.3,25,381.2z M26,388.1
	l1.4-0.2c0.2,1.1,0.4,2.3,0.6,3.4l-1.4,0.2C26.3,390.4,26.1,389.2,26,388.1z M27.1,394.9l1.4-0.2c0.2,1.1,0.4,2.3,0.6,3.4l-1.4,0.3
	C27.5,397.2,27.3,396.1,27.1,394.9z M28.4,401.8l1.4-0.3c0.2,1.1,0.5,2.3,0.7,3.4l-1.4,0.3C28.9,404,28.7,402.9,28.4,401.8z
	 M29.9,408.6l1.4-0.3c0.3,1.1,0.5,2.3,0.8,3.4l-1.4,0.3C30.4,410.8,30.2,409.7,29.9,408.6z M31.5,415.3l1.4-0.3
	c0.3,1.1,0.6,2.2,0.9,3.4l-1.4,0.4C32.1,417.6,31.8,416.5,31.5,415.3z M33.3,422.1l1.3-0.4c0.3,1.1,0.6,2.2,0.9,3.3l-1.3,0.4
	C33.9,424.3,33.6,423.2,33.3,422.1z M35.3,428.8l1.3-0.4c0.3,1.1,0.7,2.2,1,3.3l-1.3,0.4C35.9,431,35.6,429.9,35.3,428.8z
	 M37.4,435.4l1.3-0.4c0.4,1.1,0.7,2.2,1.1,3.3l-1.3,0.5C38.1,437.6,37.7,436.5,37.4,435.4z M39.6,442l1.3-0.5
	c0.4,1.1,0.8,2.2,1.2,3.3l-1.3,0.5C40.4,444.2,40,443.1,39.6,442z M42,448.5l1.3-0.5c0.4,1.1,0.8,2.2,1.3,3.2l-1.3,0.5
	C42.8,450.7,42.4,449.6,42,448.5z M44.6,455l1.3-0.5c0.4,1.1,0.9,2.1,1.3,3.2l-1.3,0.5C45.4,457.2,45,456.1,44.6,455z M47.3,461.4
	l1.3-0.6c0.5,1.1,0.9,2.1,1.4,3.2l-1.3,0.6C48.2,463.6,47.7,462.5,47.3,461.4z M50.1,467.8l1.3-0.6c0.5,1,1,2.1,1.5,3.1l-1.3,0.6
	C51.1,469.9,50.6,468.8,50.1,467.8z M53.1,474.1l1.3-0.6c0.5,1,1,2.1,1.5,3.1l-1.2,0.6C54.2,476.1,53.6,475.1,53.1,474.1z
	 M56.3,480.3l1.2-0.6c0.5,1,1.1,2,1.6,3.1l-1.2,0.7C57.3,482.3,56.8,481.3,56.3,480.3z M59.6,486.4l1.2-0.7c0.6,1,1.1,2,1.7,3
	l-1.2,0.7C60.7,488.4,60.1,487.4,59.6,486.4z M63,492.5l1.2-0.7c0.6,1,1.2,2,1.8,3l-1.2,0.7C64.2,494.5,63.6,493.5,63,492.5z
	 M66.5,498.5l1.2-0.7c0.6,1,1.2,2,1.8,2.9l-1.2,0.7C67.8,500.4,67.2,499.4,66.5,498.5z M70.3,504.4l1.2-0.8c0.6,1,1.3,1.9,1.9,2.9
	l-1.2,0.8C71.5,506.3,70.9,505.3,70.3,504.4z M74.1,510.2l1.2-0.8c0.6,1,1.3,1.9,2,2.9l-1.1,0.8C75.4,512.1,74.7,511.1,74.1,510.2z
	 M78.1,515.9l1.1-0.8c0.7,0.9,1.3,1.9,2,2.8l-1.1,0.8C79.4,517.8,78.7,516.8,78.1,515.9z M82.2,521.5l1.1-0.8
	c0.7,0.9,1.4,1.8,2.1,2.8l-1.1,0.8C83.6,523.4,82.9,522.4,82.2,521.5z M86.4,527l1.1-0.9c0.7,0.9,1.4,1.8,2.2,2.7l-1.1,0.9
	C87.8,528.9,87.1,527.9,86.4,527z M90.8,532.5l1.1-0.9c0.7,0.9,1.5,1.8,2.2,2.7l-1.1,0.9C92.2,534.3,91.5,533.4,90.8,532.5z
	 M95.2,537.8l1.1-0.9c0.8,0.9,1.5,1.7,2.3,2.6l-1,0.9C96.8,539.5,96,538.7,95.2,537.8z M99.8,543l1-0.9c0.8,0.9,1.6,1.7,2.3,2.6
	l-1,0.9C101.4,544.7,100.6,543.9,99.8,543z M104.6,548.1l1-1c0.8,0.8,1.6,1.7,2.4,2.5l-1,1C106.2,549.8,105.4,549,104.6,548.1z
	 M109.4,553.1l1-1c0.8,0.8,1.6,1.6,2.5,2.5l-1,1C111,554.8,110.2,554,109.4,553.1z M114.4,558l1-1c0.8,0.8,1.7,1.6,2.5,2.4l-1,1
	C116,559.6,115.2,558.8,114.4,558z M119.4,562.8l0.9-1c0.8,0.8,1.7,1.6,2.6,2.3l-0.9,1C121.1,564.4,120.3,563.6,119.4,562.8z
	 M124.6,567.5l0.9-1c0.9,0.8,1.7,1.5,2.6,2.3l-0.9,1.1C126.3,569,125.5,568.2,124.6,567.5z M129.9,572l0.9-1.1
	c0.9,0.7,1.8,1.5,2.7,2.2l-0.9,1.1C131.7,573.5,130.8,572.8,129.9,572z M135.3,576.4l0.9-1.1c0.9,0.7,1.8,1.4,2.7,2.2l-0.9,1.1
	C137.1,577.9,136.2,577.2,135.3,576.4z M140.7,580.7l0.8-1.1c0.9,0.7,1.8,1.4,2.8,2.1l-0.8,1.1C142.6,582.1,141.7,581.4,140.7,580.7
	z M146.3,584.9l0.8-1.1c0.9,0.7,1.9,1.4,2.8,2l-0.8,1.1C148.2,586.3,147.2,585.6,146.3,584.9z M152,588.9l0.8-1.1
	c0.9,0.7,1.9,1.3,2.9,2l-0.8,1.2C153.9,590.3,152.9,589.6,152,588.9z M157.7,592.9l0.8-1.2c1,0.6,1.9,1.3,2.9,1.9l-0.8,1.2
	C159.7,594.1,158.7,593.5,157.7,592.9z M163.6,596.6l0.7-1.2c1,0.6,2,1.2,2.9,1.8l-0.7,1.2C165.6,597.9,164.6,597.2,163.6,596.6z
	 M169.5,600.3l0.7-1.2c1,0.6,2,1.2,3,1.8l-0.7,1.2C171.5,601.4,170.5,600.9,169.5,600.3z M175.6,603.8l0.7-1.2c1,0.6,2,1.1,3,1.7
	l-0.7,1.2C177.6,604.9,176.6,604.3,175.6,603.8z M181.7,607.1l0.7-1.2c1,0.5,2,1.1,3.1,1.6l-0.6,1.2
	C183.7,608.2,182.7,607.7,181.7,607.1z M187.8,610.3c1,0.5,2.1,1,3.1,1.6l0.6-1.3c-1-0.5-2.1-1-3.1-1.5L187.8,610.3z M194.1,613.4
	l0.6-1.3c1,0.5,2.1,1,3.1,1.5l-0.6,1.3C196.2,614.4,195.1,613.9,194.1,613.4z M200.4,616.3l0.6-1.3c1.1,0.5,2.1,0.9,3.2,1.4
	l-0.6,1.3C202.5,617.3,201.5,616.8,200.4,616.3z M206.8,619.1l0.5-1.3c1.1,0.4,2.1,0.9,3.2,1.3l-0.5,1.3
	C208.9,620,207.9,619.6,206.8,619.1z M213.2,621.7l0.5-1.3c1.1,0.4,2.2,0.8,3.2,1.3l-0.5,1.3C215.4,622.6,214.3,622.2,213.2,621.7z
	 M219.7,624.2l0.5-1.3c1.1,0.4,2.2,0.8,3.3,1.2l-0.5,1.3C221.9,625,220.8,624.6,219.7,624.2z M226.3,626.6l0.5-1.3
	c1.1,0.4,2.2,0.7,3.3,1.1l-0.4,1.3C228.5,627.3,227.4,626.9,226.3,626.6z M232.9,628.7l0.4-1.3c1.1,0.3,2.2,0.7,3.3,1l-0.4,1.3
	C235.1,629.4,234,629.1,232.9,628.7z M239.6,630.7l0.4-1.3c1.1,0.3,2.2,0.6,3.3,0.9l-0.4,1.3C241.8,631.4,240.7,631.1,239.6,630.7z
	 M246.3,632.6l0.4-1.4c1.1,0.3,2.2,0.6,3.4,0.9l-0.3,1.4C248.5,633.2,247.4,632.9,246.3,632.6z M253,634.3l0.3-1.4
	c1.1,0.3,2.2,0.5,3.4,0.8l-0.3,1.4C255.3,634.9,254.2,634.6,253,634.3z M259.8,635.9l0.3-1.4c1.1,0.2,2.3,0.5,3.4,0.7l-0.3,1.4
	C262.1,636.3,261,636.1,259.8,635.9z M266.7,637.3l0.3-1.4c1.1,0.2,2.3,0.4,3.4,0.6l-0.2,1.4C268.9,637.7,267.8,637.5,266.7,637.3z
	 M273.5,638.5l0.2-1.4c1.1,0.2,2.3,0.4,3.4,0.6L277,639C275.8,638.9,274.7,638.7,273.5,638.5z M280.4,639.6l0.2-1.4
	c1.1,0.2,2.3,0.3,3.4,0.5l-0.2,1.4C282.7,639.9,281.5,639.7,280.4,639.6z M287.3,640.5l0.2-1.4c1.1,0.1,2.3,0.3,3.4,0.4l-0.2,1.4
	C289.6,640.7,288.4,640.6,287.3,640.5z M294.2,641.2l0.1-1.4c1.1,0.1,2.3,0.2,3.4,0.3l-0.1,1.4C296.5,641.4,295.4,641.3,294.2,641.2
	z M301.1,641.8l0.1-1.4c1.2,0.1,2.3,0.2,3.5,0.2l-0.1,1.4C303.5,642,302.3,641.9,301.1,641.8z M308.1,642.3l0.1-1.4
	c1.1,0.1,2.3,0.1,3.4,0.2l-0.1,1.4C310.4,642.4,309.3,642.3,308.1,642.3z M315,642.5v-1.4c1.2,0,2.3,0.1,3.5,0.1v1.4
	C317.4,642.6,316.2,642.6,315,642.5z M322,642.7v-1.4c0.6,0,1.2,0,1.7,0s1.2,0,1.7,0v1.4c-0.6,0-1.2,0-1.8,0
	C323.2,642.7,322.6,642.7,322,642.7z M329,642.6v-1.4c1.2,0,2.3,0,3.5-0.1v1.4C331.3,642.6,330.2,642.6,329,642.6z M336,642.4
	l-0.1-1.4c1.2,0,2.3-0.1,3.4-0.2l0.1,1.4C338.3,642.3,337.1,642.4,336,642.4z M342.9,642.1l-0.1-1.4c1.2-0.1,2.3-0.2,3.5-0.2
	l0.1,1.4C345.2,641.9,344.1,642,342.9,642.1z M349.9,641.5c1.2-0.1,2.3-0.2,3.5-0.3l-0.1-1.4c-1.1,0.1-2.3,0.2-3.4,0.3V641.5z
	 M356.8,640.9l-0.2-1.4c1.2-0.1,2.3-0.3,3.5-0.4l0.2,1.4C359.1,640.6,358,640.7,356.8,640.9z M363.7,640l-0.2-1.4
	c1.1-0.2,2.3-0.3,3.4-0.5l0.2,1.4C366,639.7,364.9,639.9,363.7,640z M370.6,639l-0.2-1.4c1.1-0.2,2.3-0.4,3.4-0.6l0.2,1.4
	C372.9,638.7,371.8,638.9,370.6,639z M377.5,637.9l-0.2-1.4c1.1-0.2,2.3-0.4,3.4-0.6l0.3,1.4C379.8,637.5,378.6,637.7,377.5,637.9z
	 M384.3,636.6l-0.3-1.4c1.1-0.2,2.3-0.5,3.4-0.7l0.3,1.4C386.6,636.1,385.4,636.3,384.3,636.6z M391.1,635.1l-0.3-1.4
	c1.1-0.3,2.3-0.5,3.4-0.8l0.3,1.4C393.4,634.6,392.3,634.9,391.1,635.1z M397.9,633.5l-0.3-1.4c1.1-0.3,2.2-0.6,3.4-0.9l0.4,1.4
	C400.1,632.9,399,633.2,397.9,633.5z M404.6,631.7l-0.4-1.3c1.1-0.3,2.2-0.6,3.3-0.9l0.4,1.3C406.9,631.1,405.7,631.4,404.6,631.7z
	 M411.3,629.8l-0.4-1.3c1.1-0.3,2.2-0.7,3.3-1l0.4,1.3C413.5,629.1,412.4,629.4,411.3,629.8z M417.9,627.7l-0.4-1.3
	c1.1-0.4,2.2-0.7,3.3-1.1l0.5,1.3C420.2,626.9,419,627.3,417.9,627.7z M424.5,625.4l-0.5-1.3c1.1-0.4,2.2-0.8,3.3-1.2l0.5,1.3
	C426.7,624.6,425.6,625,424.5,625.4z M431.1,623l-0.5-1.3c1.1-0.4,2.2-0.8,3.2-1.3l0.5,1.3C433.2,622.2,432.2,622.6,431.1,623z
	 M437.5,620.5l-0.5-1.3c1.1-0.4,2.1-0.9,3.2-1.3l0.5,1.3C439.7,619.6,438.6,620,437.5,620.5z M444,617.7l-0.6-1.3
	c1.1-0.5,2.1-0.9,3.2-1.4l0.6,1.3C446.1,616.8,445,617.3,444,617.7z M450.3,614.9l-0.6-1.3c1-0.5,2.1-1,3.1-1.5l0.6,1.3
	C452.4,613.9,451.4,614.4,450.3,614.9z M456.6,611.9c1-0.5,2.1-1,3.1-1.6l-0.6-1.2c-1,0.5-2.1,1-3.1,1.5L456.6,611.9z M462.8,608.7
	l-0.6-1.2c1-0.5,2-1.1,3.1-1.6l0.7,1.2C464.9,607.7,463.8,608.2,462.8,608.7z M468.9,605.5l-0.7-1.2c1-0.6,2-1.1,3-1.7l0.7,1.2
	C471,604.3,470,604.9,468.9,605.5z M475,602l-0.7-1.2c1-0.6,2-1.2,3-1.8l0.7,1.2C477,600.9,476,601.4,475,602z M481,598.5l-0.7-1.2
	c1-0.6,2-1.2,2.9-1.8l0.7,1.2C483,597.2,482,597.9,481,598.5z M486.9,594.8l-0.8-1.2c1-0.6,1.9-1.3,2.9-1.9l0.8,1.2
	C488.8,593.5,487.9,594.1,486.9,594.8z M492.7,590.9c1-0.7,1.9-1.3,2.9-2l-0.8-1.1c-0.9,0.7-1.9,1.3-2.9,2L492.7,590.9z
	 M498.4,586.9l-0.8-1.1c0.9-0.7,1.9-1.3,2.8-2l0.8,1.1C500.3,585.6,499.4,586.3,498.4,586.9z M504,582.8l-0.8-1.1
	c0.9-0.7,1.8-1.4,2.8-2.1l0.8,1.1C505.9,581.4,505,582.1,504,582.8z M509.6,578.6l-0.9-1.1c0.9-0.7,1.8-1.4,2.7-2.2l0.9,1.1
	C511.4,577.2,510.5,577.9,509.6,578.6z M515,574.2l-0.9-1.1c0.9-0.7,1.8-1.5,2.7-2.2l0.9,1.1C516.8,572.8,515.9,573.5,515,574.2z
	 M520.3,569.8l-0.9-1.1c0.9-0.8,1.7-1.5,2.6-2.3l0.9,1C522.1,568.2,521.2,569,520.3,569.8z M525.6,565.2l-0.9-1
	c0.9-0.8,1.7-1.6,2.6-2.3l0.9,1C527.3,563.6,526.4,564.4,525.6,565.2z M530.7,560.4c0.8-0.8,1.7-1.6,2.5-2.4l-1-1
	c-0.8,0.8-1.7,1.6-2.5,2.4L530.7,560.4z M535.7,555.6l-1-1c0.8-0.8,1.6-1.6,2.5-2.5l1,1C537.3,554,536.5,554.8,535.7,555.6z
	 M540.6,550.7c0.8-0.8,1.6-1.7,2.4-2.5l-1-1c-0.8,0.8-1.6,1.7-2.4,2.5L540.6,550.7z M545.4,545.6l-1-0.9c0.8-0.8,1.6-1.7,2.3-2.6
	l1,0.9C546.9,543.9,546.1,544.7,545.4,545.6z M550,540.4l-1-0.9c0.8-0.9,1.5-1.7,2.3-2.6l1.1,0.9C551.5,538.7,550.8,539.5,550,540.4
	z M554.6,535.1l-1.1-0.9c0.7-0.9,1.5-1.8,2.2-2.7l1.1,0.9C556,533.4,555.3,534.3,554.6,535.1z M559,529.8l-1.1-0.9
	c0.7-0.9,1.4-1.8,2.2-2.7l1.1,0.9C560.4,527.9,559.7,528.9,559,529.8z M563.3,524.3l-1.1-0.8c0.7-0.9,1.4-1.8,2.1-2.8l1.1,0.8
	C564.7,522.4,564,523.4,563.3,524.3z M567.4,518.7l-1.1-0.8c0.7-0.9,1.4-1.9,2-2.8l1.1,0.8C568.8,516.8,568.1,517.8,567.4,518.7z
	 M571.5,513l-1.1-0.8c0.4-0.6,0.8-1.2,1.2-1.7c0.3-0.4,0.5-0.7,0.8-1.1l1.2,0.8C572.8,511.1,572.1,512.1,571.5,513z M575.4,507.3
	l-1.2-0.8c0.6-1,1.3-1.9,1.9-2.9l1.2,0.8C576.7,505.3,576,506.3,575.4,507.3z M579.2,501.4l-1.2-0.7c0.6-1,1.2-2,1.8-2.9l1.2,0.7
	C580.4,499.4,579.8,500.4,579.2,501.4z M582.8,495.5l-1.2-0.7c0.6-1,1.2-2,1.8-3l1.2,0.7C584,493.5,583.4,494.5,582.8,495.5z
	 M586.3,489.5l-1.2-0.7c0.6-1,1.1-2,1.7-3l1.2,0.7C587.4,487.4,586.9,488.4,586.3,489.5z M589.7,483.4l-1.2-0.7c0.5-1,1.1-2,1.6-3.1
	l1.2,0.6C590.7,481.3,590.2,482.3,589.7,483.4z M592.9,477.2c0.5-1,1-2.1,1.6-3.1l-1.3-0.6c-0.5,1-1,2.1-1.5,3.1L592.9,477.2z
	 M595.9,470.9l-1.3-0.6c0.5-1,1-2.1,1.5-3.1l1.3,0.6C596.9,468.8,596.4,469.9,595.9,470.9z M598.9,464.6l-1.3-0.6
	c0.5-1.1,0.9-2.1,1.4-3.2l1.3,0.6C599.8,462.5,599.3,463.6,598.9,464.6z M601.7,458.2l-1.3-0.5c0.4-1.1,0.9-2.1,1.3-3.2l1.3,0.5
	C602.5,456.1,602.1,457.2,601.7,458.2z M604.3,451.8l-1.3-0.5c0.4-1.1,0.8-2.2,1.3-3.2l1.3,0.5C605.1,449.6,604.7,450.7,604.3,451.8
	z M606.8,445.3l-1.3-0.5c0.4-1.1,0.8-2.2,1.2-3.3l1.3,0.5C607.6,443.1,607.2,444.2,606.8,445.3z M609.1,438.7l-1.3-0.5
	c0.4-1.1,0.7-2.2,1.1-3.3l1.3,0.4C609.8,436.5,609.5,437.6,609.1,438.7z M611.3,432.1l-1.3-0.4c0.3-1.1,0.7-2.2,1-3.3l1.3,0.4
	C612,429.9,611.6,431,611.3,432.1z M613.3,425.4L612,425c0.3-1.1,0.6-2.2,0.9-3.3l1.3,0.4C613.9,423.2,613.6,424.3,613.3,425.4z
	 M615.1,418.7l-1.3-0.4c0.3-1.1,0.6-2.2,0.9-3.4l1.4,0.3C615.7,416.5,615.4,417.6,615.1,418.7z M616.9,412c0.3-1.1,0.5-2.3,0.8-3.4
	l-1.4-0.3c-0.3,1.1-0.5,2.3-0.8,3.4L616.9,412z M618.4,405.2l-1.4-0.3c0.2-1.1,0.5-2.3,0.7-3.4l1.4,0.3
	C618.9,402.9,618.6,404,618.4,405.2z M619.8,398.4l-1.4-0.3c0.2-1.1,0.4-2.3,0.6-3.4l1.4,0.2C620.2,396.1,620,397.2,619.8,398.4z
	 M621,391.5l-1.4-0.2c0.2-1.1,0.4-2.3,0.6-3.4l1.4,0.2C621.4,389.2,621.2,390.4,621,391.5z M622.1,384.6l-1.4-0.2
	c0.2-1.1,0.3-2.3,0.5-3.4l1.4,0.2C622.4,382.3,622.3,383.5,622.1,384.6z M623,377.7l-1.4-0.2c0.1-1.1,0.3-2.3,0.4-3.5l1.4,0.2
	C623.3,375.4,623.2,376.6,623,377.7z M623.8,370.8l-1.4-0.1c0.1-1.1,0.2-2.3,0.3-3.4l1.4,0.1C624,368.5,623.9,369.6,623.8,370.8z
	 M624.4,363.9l-1.4-0.1c0.1-1.2,0.2-2.3,0.2-3.5l1.4,0.1C624.5,361.6,624.4,362.7,624.4,363.9z M624.8,356.9l-1.4-0.1
	c0.1-1.1,0.1-2.3,0.2-3.4l1.4,0.1C624.9,354.6,624.9,355.7,624.8,356.9z M625.1,350h-1.4c0-1.2,0.1-2.3,0.1-3.5h1.4
	C625.1,347.6,625.1,348.8,625.1,350z"/>
<path class="st1" d="M103.4,224.9c0,28.5-23.1,51.7-51.7,51.7S0,253.5,0,224.9c0-28.5,23.1-51.7,51.7-51.7S103.4,196.4,103.4,224.9z
	"/>
<path class="st0" d="M51.7,275.2c27.8,0,50.3-22.5,50.3-50.3s-22.5-50.3-50.3-50.3S1.4,197.2,1.4,224.9
	C1.4,252.7,23.9,275.2,51.7,275.2z M51.7,276.6c28.5,0,51.7-23.1,51.7-51.7c0-28.5-23.1-51.7-51.7-51.7S0,196.4,0,224.9
	C0,253.5,23.1,276.6,51.7,276.6z"/>
<g>
	<g>
		<defs>
			<rect id="SVGID_1_" x="25.8" y="203.3" width="44.7" height="44.7"/>
		</defs>
		<clipPath id="SVGID_00000139261051265728750410000000722084631391083157_">
			<use xlink:href="#SVGID_1_"  style="overflow:visible;"/>
		</clipPath>
		<g style="clip-path:url(#SVGID_00000139261051265728750410000000722084631391083157_);">
			<path class="st3" d="M70.6,209.3v32.8c0,1.3-1.1,2.4-2.4,2.4H28.3c-1.3,0-2.4-1.1-2.4-2.4v-32.8c0-1.3,1.1-2.4,2.4-2.4h39.9
				C69.5,206.9,70.6,207.9,70.6,209.3L70.6,209.3z"/>
			<path class="st4" d="M70.6,209.3v2.9H25.8v-2.9c0-1.3,1.1-2.4,2.4-2.4h39.9C69.5,206.9,70.6,207.9,70.6,209.3z"/>
			<path class="st5" d="M29,210.4c-0.3,0-0.5-0.2-0.6-0.4c-0.1-0.3,0-0.6,0.2-0.8c0.5-0.4,1.2,0.1,1.1,0.7
				C29.6,210.1,29.4,210.4,29,210.4z"/>
			<path class="st5" d="M33.7,210.4c-0.3,0-0.5-0.2-0.6-0.4c-0.1-0.3,0-0.6,0.2-0.8c0.5-0.4,1.2,0.1,1.1,0.7
				C34.3,210.1,34,210.4,33.7,210.4z"/>
			<path class="st5" d="M31.4,210.4c-0.3,0-0.5-0.2-0.6-0.4c-0.1-0.3,0-0.6,0.2-0.8c0.5-0.4,1.2,0.1,1.1,0.7
				C32,210.1,31.7,210.4,31.4,210.4z"/>
			<path class="st6" d="M58.9,220.2l-4.5-2.4H42l-4.5,2.4l2.4,4.5l2.1-1.1v8.8h12.4v-8.8l2.1,1.1L58.9,220.2z"/>
			<path class="st7" d="M43.9,217.8c0,2.4,1.9,4.3,4.3,4.3c2.3,0,4.3-1.9,4.3-4.3"/>
			<path class="st8" d="M70.6,217.8v14.6h-4.9v-8.8l-2.1,1.1l-2.4-4.5l4.5-2.4L70.6,217.8L70.6,217.8z"/>
			<path class="st9" d="M70.6,217.8v4c-1.7-0.6-2.9-2.2-2.9-4H70.6z"/>
			<path class="st10" d="M35.2,220.2l-2.4,4.5l-2.1-1.1v8.8h-4.9v-14.6h4.9L35.2,220.2z"/>
			<path class="st11" d="M28.8,217.8c0,1.9-1.2,3.5-2.9,4v-4H28.8z"/>
			<path class="st5" d="M45,237.5H31.9l1-1c0.3-0.3,0.3-0.7,0-1s-0.7-0.3-1,0l-2.2,2.2c-0.1,0.1-0.2,0.3-0.2,0.5s0.1,0.4,0.2,0.5
				l2.2,2.2c0.1,0.1,0.3,0.2,0.5,0.2s0.3-0.1,0.5-0.2c0.3-0.3,0.3-0.7,0-1l-1-1H45c0.4,0,0.7-0.3,0.7-0.7S45.4,237.5,45,237.5z"/>
			<path class="st5" d="M66.6,237.7l-2.2-2.2c-0.3-0.3-0.7-0.3-1,0s-0.3,0.7,0,1l1,1h-13c-0.4,0-0.7,0.3-0.7,0.7s0.3,0.7,0.7,0.7
				h13.1l-1,1c-0.3,0.3-0.3,0.7,0,1c0.1,0.1,0.3,0.2,0.5,0.2c0.2,0,0.3-0.1,0.5-0.2l2.2-2.2c0.1-0.1,0.2-0.3,0.2-0.5
				C66.8,238,66.8,237.8,66.6,237.7L66.6,237.7z"/>
			<path class="st4" d="M52.8,241.9h-9.2c-0.4,0-0.7-0.3-0.7-0.7s0.3-0.7,0.7-0.7h9.2c0.4,0,0.7,0.3,0.7,0.7S53.2,241.9,52.8,241.9z
				"/>
		</g>
	</g>
</g>
<path class="st1" d="M103.4,456.1c0,28.5-23.1,51.7-51.7,51.7S0,484.7,0,456.1c0-28.5,23.1-51.7,51.7-51.7S103.4,427.6,103.4,456.1z
	"/>
<path class="st0" d="M51.7,506.4c27.8,0,50.3-22.5,50.3-50.3s-22.5-50.3-50.3-50.3S1.4,428.4,1.4,456.1
	C1.4,483.9,23.9,506.4,51.7,506.4z M51.7,507.8c28.5,0,51.7-23.1,51.7-51.7c0-28.5-23.1-51.7-51.7-51.7S0,427.6,0,456.1
	C0,484.7,23.1,507.8,51.7,507.8z"/>
<g>
	<g>
		<defs>
			<rect id="SVGID_00000177445888436317400420000012000526764138123706_" x="29.3" y="433.8" width="44.7" height="44.7"/>
		</defs>
		<clipPath id="SVGID_00000133506632598631255470000006012705520554463888_">
			<use xlink:href="#SVGID_00000177445888436317400420000012000526764138123706_"  style="overflow:visible;"/>
		</clipPath>
		<g style="clip-path:url(#SVGID_00000133506632598631255470000006012705520554463888_);">
			<path class="st6" d="M37.9,453.7c1.4,2.7,2.5,4.5,5.1,7.1s4.4,3.7,7.1,5.1l4.5-4.5c0.5-0.5,1.2-0.5,1.7,0l6.7,6.7
				c0.5,0.5,0.5,1.2,0,1.7l-1.8,1.8c-5.2,5.2-15.4,3.5-24-5c-8.6-8.6-10.3-18.7-5-24l1.8-1.8c0.5-0.5,1.2-0.5,1.7,0l6.7,6.7
				c0.5,0.5,0.5,1.2,0,1.7L37.9,453.7z"/>
			<path class="st7" d="M39,464.8c-8.6-8.6-10.3-18.7-5-24l-1.7,1.7c-5.2,5.2-3.5,15.4,5,24c8.6,8.6,18.7,10.3,24,5l1.7-1.7
				C57.7,475.1,47.5,473.4,39,464.8L39,464.8z"/>
			<path class="st5" d="M35.7,440.8l6.7,6.7c0.5,0.5,0.5,1.2,0,1.7l-1.8,1.8l-8.4-8.4l1.8-1.8C34.5,440.3,35.2,440.3,35.7,440.8z"/>
			<path class="st5" d="M56.3,461.4l6.7,6.7c0.5,0.5,0.5,1.2,0,1.7l-1.8,1.8l-8.4-8.4l1.8-1.8C55.1,460.9,55.9,460.9,56.3,461.4
				L56.3,461.4z"/>
			<path class="st13" d="M39.8,446.5l-1.8,1.8l2.6,2.6l1.8-1.8c0.5-0.5,0.5-1.2,0-1.7l-2.6-2.6C40.2,445.3,40.2,446.1,39.8,446.5z"
				/>
			<path class="st14" d="M71.7,437.9H49.4c-1.2,0-2.2,1-2.2,2.2v10.4c0,1.2,1,2.2,2.2,2.2h1.3v5.1l5.1-5.1h16c1.2,0,2.2-1,2.2-2.2
				v-10.4C74,438.9,73,437.9,71.7,437.9z"/>
			<path class="st5" d="M53.2,446c0.8-0.6,1.8-1.2,1.8-2.4c0-0.6-0.2-1-0.7-1.4c-0.4-0.3-0.9-0.5-1.4-0.5c-1,0-2,0.6-2,1.7
				c0,0.5,0.2,0.7,0.6,0.7c0.5,0,0.7-0.3,0.7-0.5c0-0.4,0.2-0.7,0.7-0.7s0.7,0.3,0.7,0.6c0,0.5-0.6,1-1.3,1.5s-1.5,1.1-1.5,1.9v0.9
				c0,0.3,0.4,0.4,0.6,0.4h3.2c0.2,0,0.4-0.3,0.4-0.6c0-0.3-0.2-0.6-0.4-0.6h-2.3v-0.1C52.3,446.6,52.7,446.3,53.2,446z"/>
			<path class="st5" d="M59.9,445.6h-0.4V445c0-0.2-0.2-0.4-0.7-0.4s-0.7,0.2-0.7,0.4v0.6h-0.7l1.6-3.1c0-0.1,0-0.1,0-0.2
				s-0.1-0.3-0.3-0.4c-0.1-0.1-0.3-0.1-0.4-0.1c-0.3,0-0.5,0.1-0.6,0.4l-2.1,4c-0.1,0.1-0.1,0.2-0.1,0.3c0,0.3,0.2,0.5,0.5,0.5h2.1
				v0.9c0,0.2,0.2,0.4,0.7,0.4s0.7-0.2,0.7-0.4V447h0.4c0.2,0,0.4-0.3,0.4-0.7C60.4,445.8,60.1,445.6,59.9,445.6L59.9,445.6z"/>
			<path class="st5" d="M64.6,441.3c-0.2,0-0.3,0.1-0.4,0.2L61,448c0,0.1,0,0.1,0,0.2c0,0.2,0.2,0.5,0.5,0.5c0.2,0,0.3-0.1,0.4-0.2
				l3.1-6.4c0-0.1,0-0.1,0-0.2C65.1,441.5,64.8,441.3,64.6,441.3z"/>
			<path class="st5" d="M69.6,441.7h-3.2c-0.3,0-0.6,0.2-0.6,0.4v1.4c0,0.2,0.3,0.4,0.7,0.4c0.4,0,0.7-0.2,0.7-0.4v-0.6h1.6v0.6
				l-2.2,3.8c0,0.1-0.1,0.2-0.1,0.2c0,0.4,0.5,0.7,0.9,0.7c0.2,0,0.3-0.1,0.4-0.2l2.1-4c0.1-0.1,0.3-0.6,0.3-0.9V442
				C70.3,441.9,70,441.7,69.6,441.7z"/>
		</g>
	</g>
</g>
<path class="st1" d="M271.7,51.7c0,28.5-23.1,51.7-51.7,51.7c-28.5,0-51.7-23.1-51.7-51.7S191.5,0,220,0
	C248.6,0,271.7,23.1,271.7,51.7z"/>
<path class="st0" d="M219.7,102c27.8,0,50.3-22.5,50.3-50.3S247.5,1.4,219.7,1.4s-50.3,22.5-50.3,50.3S191.9,102,219.7,102z
	 M219.7,103.4c28.5,0,51.7-23.1,51.7-51.7S248.2,0,219.7,0S168,23.1,168,51.7S191.1,103.4,219.7,103.4z"/>
<g>
	<g>
		<defs>
			<rect id="SVGID_00000058557745397597552820000017771226139366453673_" x="198" y="29" width="44.7" height="44.7"/>
		</defs>
		<clipPath id="SVGID_00000072973832137588181080000009652310703771100860_">
			<use xlink:href="#SVGID_00000058557745397597552820000017771226139366453673_"  style="overflow:visible;"/>
		</clipPath>
		<g style="clip-path:url(#SVGID_00000072973832137588181080000009652310703771100860_);">
			<path class="st8" d="M233.9,73.6h-34l3.5-33.3h27.1l0.6,5.6L233.9,73.6z"/>
			<path class="st9" d="M217.3,51.1h18.9l2.4,22.5h-23.7L217.3,51.1z"/>
			<path class="st6" d="M219.2,51.1h18.9l2.4,22.5h-23.7L219.2,51.1z"/>
			<path class="st9" d="M231,45.9c-2.4-0.8-4.3-2.9-4.5-5.6h4L231,45.9z"/>
			<path class="st14" d="M240.9,39.6c0,3.6-2.9,6.6-6.6,6.6c-3.6,0-6.6-3-6.6-6.6s3-6.6,6.6-6.6C238,33,240.9,36,240.9,39.6z"/>
			<path class="st16" d="M233.8,43.7c-0.2,0-0.5-0.1-0.6-0.3l-1.8-3.2c-0.2-0.3-0.1-0.7,0.3-0.9c0.3-0.2,0.7-0.1,0.9,0.3l1.2,2.1
				l2.6-5.3c0.2-0.3,0.6-0.5,0.9-0.3c0.3,0.2,0.5,0.6,0.3,0.9l-3.1,6.5C234.3,43.5,234.1,43.7,233.8,43.7L233.8,43.7L233.8,43.7z"/>
			<path class="st17" d="M224.2,44.3c-0.4,0-0.7-0.3-0.7-0.7v-6.7c0-3.7-3-6.6-6.6-6.6c-3.7,0-6.6,3-6.6,6.6v6.7
				c0,0.4-0.3,0.7-0.7,0.7s-0.7-0.3-0.7-0.7v-6.7c0-4.4,3.6-8,8-8s8,3.6,8,8v6.7C224.8,44,224.5,44.3,224.2,44.3z"/>
			<path class="st17" d="M228.6,64.6c-2.8,0-5-2.3-5-5v-4.4c0-0.4,0.3-0.7,0.7-0.7s0.7,0.3,0.7,0.7v4.4c0,2,1.7,3.7,3.7,3.7
				s3.7-1.7,3.7-3.7v-4.4c0-0.4,0.3-0.7,0.7-0.7s0.7,0.3,0.7,0.7v4.4C233.7,62.4,231.4,64.6,228.6,64.6L228.6,64.6z"/>
		</g>
	</g>
</g>
<path class="st1" d="M271.7,620.3c0,28.5-23.1,51.7-51.7,51.7c-28.5,0-51.7-23.1-51.7-51.7s23.1-51.7,51.7-51.7
	S271.7,591.8,271.7,620.3z"/>
<path class="st0" d="M220,670.6c27.8,0,50.3-22.5,50.3-50.3S247.8,570,220,570s-50.3,22.5-50.3,50.3
	C169.7,648.1,192.3,670.6,220,670.6z M220,672c28.5,0,51.7-23.1,51.7-51.7s-23.1-51.7-51.7-51.7c-28.5,0-51.7,23.1-51.7,51.7
	S191.5,672,220,672z"/>
<g>
	<g>
		<defs>
			<rect id="SVGID_00000053540572187751622560000007261264599254048418_" x="197.7" y="598" width="44.7" height="44.7"/>
		</defs>
		<clipPath id="SVGID_00000068660416730663644250000001186843754214036380_">
			<use xlink:href="#SVGID_00000053540572187751622560000007261264599254048418_"  style="overflow:visible;"/>
		</clipPath>
		<g style="clip-path:url(#SVGID_00000068660416730663644250000001186843754214036380_);">
			<path class="st8" d="M203,608.1v-7.7c0-1.4,1.1-2.5,2.5-2.5h21.6c1.5,0,2.7,1.2,2.7,2.7v13.1"/>
			<path class="st19" d="M205.7,601.4H203v3.3h26.8v-3.3H208"/>
			<path class="st17" d="M242.2,611.3v21.1c0,1.8-1.4,3.2-3.2,3.2h-37.7c-1.8,0-3.2-1.4-3.2-3.2v-21.1c0-1.8,1.4-3.2,3.2-3.2H239
				C240.8,608.1,242.2,609.6,242.2,611.3L242.2,611.3z"/>
			<path class="st19" d="M202.8,621.9c0,1-0.8,1.9-1.9,1.9c-1,0-1.9-0.8-1.9-1.9c0-1,0.8-1.9,1.9-1.9
				C201.9,620,202.8,620.9,202.8,621.9z"/>
			<path class="st19" d="M232.5,615.8v19.9h-21v-19.9c0-1.4-0.6-2.6-1.5-3.5s-2.2-1.5-3.5-1.5h21C230.3,610.8,232.5,613,232.5,615.8
				L232.5,615.8z"/>
			<path class="st3" d="M236.5,631.4v-18.9c0-0.9-0.7-1.6-1.6-1.6h-29.6c-0.9,0-1.6,0.7-1.6,1.6v18.9c0,0.9,0.7,1.6,1.6,1.6h29.6
				C235.8,633,236.5,632.3,236.5,631.4L236.5,631.4z"/>
			<path class="st4" d="M208.6,610.8h20.2V633h-20.2V610.8z"/>
			<path class="st19" d="M239.5,625c-0.4,0-0.7-0.3-0.7-0.7v-4.8c0-0.4,0.3-0.7,0.7-0.7s0.7,0.3,0.7,0.7v4.8
				C240.2,624.7,239.9,625,239.5,625z"/>
			<path class="st5" d="M233.8,615.8v26.8l-3.5-2l-3.5,2l-3.5-2l-3.5,2l-3.5-2l-3.5,2v-26.8c0-1.4-0.6-2.6-1.5-3.5s-2.2-1.5-3.5-1.5
				h21C231.6,610.8,233.8,613,233.8,615.8z"/>
			<path class="st13" d="M233.8,615.8v0.5h-21v-0.5c0-1.4-0.6-2.6-1.5-3.5s-2.2-1.5-3.5-1.5h21C231.6,610.8,233.8,613,233.8,615.8z"
				/>
			<path class="st17" d="M218.6,621.2h-2.9c-0.4,0-0.7-0.3-0.7-0.7s0.3-0.7,0.7-0.7h2.9c0.4,0,0.7,0.3,0.7,0.7
				S219,621.2,218.6,621.2z"/>
			<path class="st17" d="M231.1,621.2h-9.5c-0.4,0-0.7-0.3-0.7-0.7s0.3-0.7,0.7-0.7h9.5c0.4,0,0.7,0.3,0.7,0.7
				S231.5,621.2,231.1,621.2L231.1,621.2z"/>
			<path class="st17" d="M218.6,617.8h-2.9c-0.4,0-0.7-0.3-0.7-0.7s0.3-0.7,0.7-0.7h2.9c0.4,0,0.7,0.3,0.7,0.7
				S219,617.8,218.6,617.8z"/>
			<path class="st17" d="M231.1,617.8h-9.5c-0.4,0-0.7-0.3-0.7-0.7s0.3-0.7,0.7-0.7h9.5c0.4,0,0.7,0.3,0.7,0.7
				S231.5,617.8,231.1,617.8L231.1,617.8z"/>
			<path class="st17" d="M217.7,614.4h-2.9c-0.4,0-0.7-0.3-0.7-0.7s0.3-0.7,0.7-0.7h2.9c0.4,0,0.7,0.3,0.7,0.7
				C218.4,614.1,218.1,614.4,217.7,614.4z"/>
			<path class="st17" d="M230.2,614.4h-9.5c-0.4,0-0.7-0.3-0.7-0.7s0.3-0.7,0.7-0.7h9.5c0.4,0,0.7,0.3,0.7,0.7
				C230.9,614.1,230.6,614.4,230.2,614.4z"/>
			<path class="st17" d="M218.6,624.6h-2.9c-0.4,0-0.7-0.3-0.7-0.7s0.3-0.7,0.7-0.7h2.9c0.4,0,0.7,0.3,0.7,0.7
				S219,624.6,218.6,624.6z"/>
			<path class="st17" d="M231.1,624.6h-9.5c-0.4,0-0.7-0.3-0.7-0.7s0.3-0.7,0.7-0.7h9.5c0.4,0,0.7,0.3,0.7,0.7
				S231.5,624.6,231.1,624.6L231.1,624.6z"/>
			<path class="st17" d="M218.6,628.1h-2.9c-0.4,0-0.7-0.3-0.7-0.7s0.3-0.7,0.7-0.7h2.9c0.4,0,0.7,0.3,0.7,0.7
				S219,628.1,218.6,628.1z"/>
			<path class="st17" d="M231.1,628.1h-9.5c-0.4,0-0.7-0.3-0.7-0.7s0.3-0.7,0.7-0.7h9.5c0.4,0,0.7,0.3,0.7,0.7
				S231.5,628.1,231.1,628.1L231.1,628.1z"/>
			<path class="st17" d="M225.5,635c0-0.4-0.1-0.9-0.4-1.2c-0.2-0.3-0.6-0.5-0.9-0.6c-0.1,0-0.2-0.1-0.3-0.1c0,0-0.1,0-0.1-0.1v-0.2
				c0-0.3,0-0.6,0-0.9c0-0.2,0-0.4,0-0.6c0.3,0,0.5,0.2,0.7,0.3s0.4,0.1,0.5,0s0.2-0.4,0.2-0.6c0-0.2-0.2-0.4-0.4-0.5
				s-0.5-0.2-0.7-0.2c-0.1,0-0.3,0-0.4,0l0,0c0,0,0,0,0-0.1v-0.1c-0.1-0.3-0.4-0.4-0.6-0.3c-0.1,0.1-0.2,0.2-0.2,0.3v0.1v0.1h-0.1
				c-0.1,0-0.1,0-0.2,0c-0.1,0-0.2,0.1-0.3,0.1c-0.2,0.1-0.4,0.2-0.6,0.4c-0.4,0.4-0.5,0.9-0.5,1.5c0,0.5,0.3,0.9,0.7,1.2
				c0.2,0.1,0.4,0.2,0.6,0.3c0.1,0,0.2,0.1,0.3,0.1s0.1,0,0.1,0.1s0,0.2,0,0.4v0.6v0.9v0.1c-0.3-0.1-0.6-0.2-0.9-0.4
				c-0.2-0.1-0.4-0.3-0.6-0.3c-0.3,0.1-0.5,0.4-0.5,0.7s0.2,0.5,0.4,0.6c0.3,0.2,0.6,0.4,1,0.4c0.1,0,0.2,0,0.3,0.1
				c0.1,0,0.3,0,0.3,0v0.1v0.1c0,0.1,0.1,0.2,0.2,0.2c0.3,0.2,0.7,0,0.7-0.4c0,0,0,0,0-0.1l0,0c0.1,0,0.2,0,0.3-0.1
				c0.1,0,0.3-0.1,0.4-0.2C225.2,636.4,225.5,635.8,225.5,635L225.5,635z M222.4,632c0-0.3,0.3-0.5,0.6-0.6v1.3
				C222.7,632.6,222.4,632.4,222.4,632z M223.9,635.9c0-0.5,0-1,0-1.5c0.3,0.2,0.5,0.4,0.5,0.8C224.4,635.5,224.2,635.8,223.9,635.9
				z"/>
			<path class="st17" d="M223.4,637.6c-0.2,0-0.4-0.1-0.4-0.3v-0.1c0-0.1,0,0-0.1,0s-0.2,0-0.4-0.1c-0.4-0.1-0.8-0.2-1.1-0.5
				c-0.2-0.2-0.4-0.4-0.4-0.7s0.3-0.8,0.7-0.7c0.2,0.1,0.4,0.3,0.6,0.4c0.2,0.1,0.4,0.3,0.7,0.3c0-0.6,0-1.2,0-1.7v-0.1
				c0,0,0,0-0.1-0.1c-0.2-0.1-0.4-0.2-0.6-0.2c-0.4-0.2-0.8-0.5-0.9-0.9c-0.2-0.4-0.2-1,0-1.5c0.2-0.4,0.5-0.8,1-1
				c0.1-0.1,0.2-0.1,0.4-0.1c0.1,0,0.1,0,0.2,0h0.1c0,0,0,0,0-0.1c0-0.2,0.1-0.5,0.3-0.5c0.3-0.1,0.5,0.1,0.6,0.4v0.1v0.1h0.1
				c0.2,0,0.3,0,0.5,0.1c0.4,0.1,1,0.3,1,0.8c0,0.2-0.1,0.4-0.3,0.5c-0.3,0.1-0.5-0.1-0.7-0.2c-0.1-0.1-0.3-0.1-0.4-0.1v1.1v0.6l0,0
				l0.1,0.1c0.1,0.1,0.3,0.1,0.4,0.2c0.6,0.3,1,0.8,1.1,1.4c0.1,0.6-0.1,1.3-0.5,1.8c-0.3,0.3-0.6,0.4-0.9,0.5c0,0-0.1,0-0.2,0
				c0,0,0,0,0,0.1s0,0.1,0,0.2C223.8,637.5,223.6,637.6,223.4,637.6L223.4,637.6z M221.6,635.3c-0.2,0-0.4,0.2-0.5,0.4s0,0.3,0,0.5
				c0.2,0.4,0.7,0.6,1.1,0.7c0.1,0,0.3,0.1,0.4,0.1c0.1,0,0.1,0,0.2,0h0.1l0,0c0,0.1,0,0.2,0.1,0.3s0.2,0.2,0.3,0.2
				c0.2,0,0.4-0.2,0.4-0.4V637c0-0.1,0,0,0.1-0.1c0.1,0,0.2-0.1,0.4-0.1c0.4-0.2,0.8-0.4,1-0.8c0.2-0.4,0.3-0.9,0.2-1.4
				s-0.3-0.9-0.7-1.1c-0.2-0.1-0.4-0.2-0.6-0.3c-0.1,0-0.2-0.1-0.3-0.1s0,0-0.1-0.1c0-0.1,0-0.2,0-0.3c0-0.2,0-0.3,0-0.5
				c0-0.3,0-0.6,0-0.9c0,0,0,0,0-0.1c0.3,0,0.5,0.2,0.8,0.3s0.5,0,0.6-0.2s0.1-0.4,0-0.6c-0.1-0.2-0.4-0.3-0.6-0.4
				c-0.1,0-0.3-0.1-0.5-0.1c-0.1,0-0.2,0-0.2,0h-0.1l0,0c0-0.1,0-0.2,0-0.3c-0.1-0.1-0.2-0.2-0.3-0.2c-0.3,0-0.5,0.2-0.5,0.4v0.1
				c0,0.1,0,0-0.1,0.1c-0.2,0-0.3,0.1-0.5,0.1c-0.4,0.1-0.8,0.4-1,0.8c-0.2,0.3-0.2,0.6-0.2,0.9c0,0.5,0.2,1,0.7,1.3
				c0.2,0.2,0.4,0.3,0.7,0.4c0.1,0.1,0.2,0.1,0.4,0.1c0.1,0,0,0,0,0.1s0,0.2,0,0.4v0.6v1v0.1c-0.3,0-0.5-0.1-0.7-0.3
				c-0.1-0.1-0.2-0.1-0.3-0.2C221.9,635.4,221.7,635.3,221.6,635.3L221.6,635.3z M223.8,635.9c0-0.5,0-0.9,0-1.4c0-0.1,0-0.1,0-0.2
				c0.3,0.2,0.5,0.4,0.6,0.8C224.4,635.5,224.2,635.8,223.8,635.9z M223.9,634.4v1.4c0.3-0.1,0.5-0.4,0.5-0.7
				C224.3,634.8,224.2,634.6,223.9,634.4z M223,632.7c-0.3-0.1-0.6-0.3-0.6-0.7s0.3-0.6,0.6-0.7V632.7z M222.9,631.4
				c-0.3,0.1-0.5,0.3-0.5,0.6s0.3,0.5,0.5,0.7C222.9,632.2,222.9,631.8,222.9,631.4L222.9,631.4z"/>
		</g>
	</g>
</g>
<path class="st1" d="M493.9,51.7c0,28.5-23.1,51.7-51.7,51.7c-28.5,0-51.7-23.1-51.7-51.7S413.6,0,442.2,0
	C470.7,0,493.9,23.1,493.9,51.7z"/>
<path class="st0" d="M442.2,102c27.8,0,50.3-22.5,50.3-50.3S470,1.4,442.2,1.4s-50.3,22.5-50.3,50.3S414.4,102,442.2,102z
	 M442.2,103.4c28.5,0,51.7-23.1,51.7-51.7S470.7,0,442.2,0s-51.7,23.1-51.7,51.7S413.6,103.4,442.2,103.4z"/>
<g>
	<g>
		<defs>
			<rect id="SVGID_00000134961550936288641510000017791961309549671066_" x="419.8" y="27.3" width="44.7" height="44.7"/>
		</defs>
		<clipPath id="SVGID_00000121997580363685303910000001964561366486615727_">
			<use xlink:href="#SVGID_00000134961550936288641510000017791961309549671066_"  style="overflow:visible;"/>
		</clipPath>
		<g style="clip-path:url(#SVGID_00000121997580363685303910000001964561366486615727_);">
			<path class="st10" d="M454.6,35.5v33c0,1.9-1.6,3.5-3.5,3.5h-27.7c-1.9,0-3.5-1.6-3.5-3.5v-33c0-1.9,1.6-3.5,3.5-3.5h11.7
				c0,1.2,1,2.2,2.2,2.2s2.2-1,2.2-2.2h11.7C453,32,454.6,33.5,454.6,35.5z"/>
			<path class="st11" d="M442,59.5h7.8V72H442V59.5z"/>
			<path class="st5" d="M424.7,36.3h25.2v30.1h-25.2V36.3z"/>
			<path class="st6" d="M441.7,30.3c-0.7-1.8-2.4-3-4.4-3s-3.7,1.3-4.4,3h-3.5c-0.8,0-1.4,0.6-1.4,1.4V39h18.6v-7.3
				c0-0.8-0.6-1.4-1.4-1.4C445.2,30.3,441.7,30.3,441.7,30.3z M437.2,34.2c-1.2,0-2.2-1-2.2-2.2s1-2.2,2.2-2.2s2.2,1,2.2,2.2
				C439.4,33.2,438.5,34.2,437.2,34.2z"/>
			<path class="st13" d="M442,54h7.8v12.4H442V54z"/>
			<path class="st21" d="M444.3,54h20.3v18h-20.3V54z"/>
			<path class="st8" d="M458,62.6l-3.6-2l-3.6,2V54h7.1v8.6H458z"/>
			<path class="st7" d="M437.2,34.8c-1.6,0-2.9-1.3-2.9-2.9s1.3-2.9,2.9-2.9s2.9,1.3,2.9,2.9C440.1,33.6,438.8,34.8,437.2,34.8z
				 M437.2,30.5c-0.8,0-1.5,0.7-1.5,1.5s0.7,1.5,1.5,1.5s1.5-0.7,1.5-1.5C438.7,31.1,438.1,30.5,437.2,30.5z"/>
			<path class="st8" d="M429.7,48.9c-0.2,0-0.5-0.1-0.6-0.3l-1.6-2.5c-0.2-0.3-0.1-0.7,0.2-0.9c0.3-0.2,0.7-0.1,0.9,0.2l0.9,1.5
				L431,44c0.2-0.3,0.6-0.5,0.9-0.3s0.5,0.6,0.3,0.9l-2.1,4C430.2,48.7,430,48.8,429.7,48.9C429.8,48.9,429.8,48.9,429.7,48.9z"/>
			<path class="st17" d="M443.3,46.8h-8.8c-0.4,0-0.7-0.3-0.7-0.7s0.3-0.7,0.7-0.7h8.8c0.4,0,0.7,0.3,0.7,0.7S443.7,46.8,443.3,46.8
				z"/>
			<path class="st8" d="M429.7,56.7c-0.2,0-0.5-0.1-0.6-0.3l-1.6-2.5c-0.2-0.3-0.1-0.7,0.2-0.9c0.3-0.2,0.7-0.1,0.9,0.2l0.9,1.5
				l1.5-2.9c0.2-0.3,0.6-0.5,0.9-0.3s0.5,0.6,0.3,0.9l-2.1,4C430.2,56.5,430,56.6,429.7,56.7C429.8,56.7,429.8,56.7,429.7,56.7
				L429.7,56.7z"/>
			<path class="st17" d="M443.3,54.7h-8.8c-0.4,0-0.7-0.3-0.7-0.7s0.3-0.7,0.7-0.7h8.8c0.4,0,0.7,0.3,0.7,0.7
				C444,54.3,443.7,54.7,443.3,54.7z"/>
			<path class="st22" d="M444.3,72l10.2-2l10.2,2H444.3z"/>
		</g>
	</g>
</g>
<path class="st1" d="M493.9,620.3c0,28.5-23.1,51.7-51.7,51.7c-28.5,0-51.7-23.1-51.7-51.7s23.1-51.7,51.7-51.7
	C470.7,568.6,493.9,591.8,493.9,620.3z"/>
<path class="st0" d="M442.2,670.6c27.8,0,50.3-22.5,50.3-50.3S470,570,442.2,570s-50.3,22.5-50.3,50.3
	C391.9,648.1,414.4,670.6,442.2,670.6z M442.2,672c28.5,0,51.7-23.1,51.7-51.7s-23.1-51.7-51.7-51.7c-28.5,0-51.7,23.1-51.7,51.7
	S413.6,672,442.2,672z"/>
<g>
	<g>
		<defs>
			<rect id="SVGID_00000053534118793461855520000014395694372871869834_" x="419.8" y="598" width="44.7" height="44.7"/>
		</defs>
		<clipPath id="SVGID_00000041991701760631194460000016560979455641713829_">
			<use xlink:href="#SVGID_00000053534118793461855520000014395694372871869834_"  style="overflow:visible;"/>
		</clipPath>
		<g style="clip-path:url(#SVGID_00000041991701760631194460000016560979455641713829_);">
			<path class="st8" d="M461.4,612.9h-14l-1.6,17.6h15.7c1.7,0,3-1.4,3-3V616C464.4,614.3,463.1,612.9,461.4,612.9L461.4,612.9z"/>
			<path class="st19" d="M446.2,620.5h18.2v-3.7h-17.1L446.2,620.5z"/>
			<path class="st17" d="M444.1,642.5H423c-1.8,0-3.2-1.5-3.2-3.2v-37.8c0-1.8,1.5-3.2,3.2-3.2h21.1c1.8,0,3.2,1.5,3.2,3.2v37.8
				C447.4,641,445.9,642.5,444.1,642.5z"/>
			<path class="st19" d="M436,601.9h-4.8c-0.4,0-0.7-0.3-0.7-0.7s0.3-0.7,0.7-0.7h4.8c0.4,0,0.7,0.3,0.7,0.7S436.3,601.9,436,601.9z
				"/>
			<path class="st19" d="M435.6,639.6c0,1.1-0.9,2-2,2s-2-0.9-2-2s0.9-2,2-2S435.6,638.5,435.6,639.6z"/>
			<path class="st3" d="M443,603.9h-19c-0.9,0-1.6,0.7-1.6,1.6v29.6c0,0.9,0.7,1.6,1.6,1.6h19c0.9,0,1.6-0.7,1.6-1.6v-29.6
				C444.7,604.6,443.9,603.9,443,603.9z"/>
			<path class="st4" d="M444.7,605.5v29.6c0,0.9-0.7,1.6-1.6,1.6h-2.3c0.9,0,1.6-0.7,1.6-1.6v-29.6c0-0.9-0.7-1.6-1.6-1.6h2.3
				C443.9,603.9,444.7,604.6,444.7,605.5L444.7,605.5z"/>
			<path class="st8" d="M444.7,609.1v25.1h-13.3c-2.4,0-4.3-1.9-4.3-4.3v-16.4c0-2.4,1.9-4.3,4.3-4.3L444.7,609.1L444.7,609.1z"/>
			<path class="st9" d="M443,609.1h1.7v25.1H443V609.1z"/>
			<path class="st19" d="M444.7,614.8h-17.6v5.2h17.6"/>
			<path class="st19" d="M453.5,624.5h-4.2c-0.4,0-0.7-0.3-0.7-0.7s0.3-0.7,0.7-0.7h4.2c0.4,0,0.7,0.3,0.7,0.7
				S453.9,624.5,453.5,624.5z"/>
			<path class="st19" d="M460,624.5h-4.2c-0.4,0-0.7-0.3-0.7-0.7s0.3-0.7,0.7-0.7h4.2c0.4,0,0.7,0.3,0.7,0.7
				C460.6,624.2,460.3,624.5,460,624.5z"/>
			<path class="st19" d="M444.7,623.7v1.8h-2c-0.5,0-0.9-0.4-0.9-0.9s0.4-0.9,0.9-0.9L444.7,623.7L444.7,623.7z"/>
			<path class="st19" d="M439.4,625.6h-5.9c-0.5,0-0.9-0.4-0.9-0.9s0.4-0.9,0.9-0.9h5.9c0.5,0,0.9,0.4,0.9,0.9
				C440.3,625.2,439.9,625.6,439.4,625.6z"/>
			<path class="st21" d="M462.1,603h-7.3v-2.5l-4.8,4.8l4.8,4.8v-2.5h7.3V603z"/>
		</g>
	</g>
</g>
<path class="st1" d="M653.8,224.9c0,28.5-23.1,51.7-51.7,51.7c-28.5,0-51.7-23.1-51.7-51.7c0-28.5,23.1-51.7,51.7-51.7
	C630.7,173.2,653.8,196.4,653.8,224.9z"/>
<path class="st0" d="M602.1,275.2c27.8,0,50.3-22.5,50.3-50.3s-22.5-50.3-50.3-50.3s-50.3,22.5-50.3,50.3S574.4,275.2,602.1,275.2z
	 M602.1,276.6c28.5,0,51.7-23.1,51.7-51.7c0-28.5-23.1-51.7-51.7-51.7c-28.5,0-51.7,23.1-51.7,51.7
	C550.5,253.5,573.6,276.6,602.1,276.6z"/>
<path class="st1" d="M653.8,456.1c0,28.5-23.1,51.7-51.7,51.7c-28.5,0-51.7-23.1-51.7-51.7c0-28.5,23.1-51.7,51.7-51.7
	C630.7,404.5,653.8,427.6,653.8,456.1z"/>
<path class="st0" d="M602.1,506.4c27.8,0,50.3-22.5,50.3-50.3s-22.5-50.3-50.3-50.3s-50.3,22.5-50.3,50.3S574.4,506.4,602.1,506.4z
	 M602.1,507.8c28.5,0,51.7-23.1,51.7-51.7c0-28.5-23.1-51.7-51.7-51.7c-28.5,0-51.7,23.1-51.7,51.7
	C550.5,484.7,573.6,507.8,602.1,507.8z"/>
<g>
	<g>
		<defs>
			<rect id="SVGID_00000026843145594732320910000003078436422889601721_" x="579.8" y="202.6" width="44.7" height="44.7"/>
		</defs>
		<clipPath id="SVGID_00000119086827372616323810000015187807697524909443_">
			<use xlink:href="#SVGID_00000026843145594732320910000003078436422889601721_"  style="overflow:visible;"/>
		</clipPath>
		<g style="clip-path:url(#SVGID_00000119086827372616323810000015187807697524909443_);">
			<path class="st3" d="M624.5,206.4v30.2c0,1.3-1.1,2.4-2.4,2.4h-33.8c-1.3,0-2.4-1.1-2.4-2.4v-30.2c0-1.3,1.1-2.4,2.4-2.4h33.8
				C623.4,204,624.5,205.1,624.5,206.4L624.5,206.4z"/>
			<path class="st4" d="M590.8,234h3.2v5h-3.2V234z"/>
			<path class="st4" d="M597.1,228.5h3.2V239h-3.2V228.5z"/>
			<path class="st4" d="M624.5,206.4v2.9h-38.6v-2.9c0-1.3,1.1-2.4,2.4-2.4h33.8C623.4,204,624.5,205.1,624.5,206.4L624.5,206.4z"/>
			<path class="st16" d="M589.1,207.5c-0.6,0-0.9-0.8-0.4-1.2s1.2,0.1,1.1,0.7C589.7,207.3,589.4,207.5,589.1,207.5z"/>
			<path class="st16" d="M593.7,207.5c-0.6,0-0.9-0.8-0.4-1.2c0.2-0.2,0.5-0.2,0.8-0.1c0.2,0.2,0.4,0.5,0.3,0.7
				C594.3,207.3,594,207.5,593.7,207.5z"/>
			<path class="st16" d="M591.4,207.5c-0.3,0-0.5-0.2-0.6-0.4c-0.1-0.3,0-0.6,0.2-0.8c0.5-0.4,1.2,0.1,1.1,0.7
				C592,207.3,591.7,207.5,591.4,207.5z"/>
			<path class="st8" d="M616.1,224c0,6.1-4.9,11-11,11c-1.8,0-3.5-0.4-5-1.2c-1.2-0.6-2.3-1.4-3.2-2.4c-1.8-1.9-2.8-4.5-2.8-7.4
				c0-6.1,4.9-11,11-11v11l8.7-6.7C615.3,219.1,616.1,221.4,616.1,224L616.1,224z"/>
			<path class="st9" d="M600.2,228.5v5.2c-1.2-0.6-2.3-1.4-3.2-2.4v-2.8H600.2z"/>
			<path class="st4" d="M614.9,212.2l-8.7,6.7V208C609.8,207.9,612.9,209.6,614.9,212.2z"/>
			<path class="st10" d="M616.1,224c0,3.7-1.8,6.9-4.5,8.9l-6.4-8.9l8.7-6.7C615.3,219.1,616.1,221.4,616.1,224L616.1,224z"/>
			<path class="st21" d="M616.3,212.2l-8.7,6.7V208C611.1,207.9,614.3,209.6,616.3,212.2L616.3,212.2z"/>
			<path class="st14" d="M579.8,225.3h3.2v20.5h-3.2V225.3z"/>
			<path class="st14" d="M585.9,220.7h3.2v25.1h-3.2V220.7z"/>
			<path class="st14" d="M592.2,234h3.2v11.8h-3.2V234z"/>
			<path class="st14" d="M598.4,228.5h3.2v17.3h-3.2V228.5z"/>
			<path class="st8" d="M622.1,236.3h-7.3c-0.4,0-0.7-0.3-0.7-0.7s0.3-0.7,0.7-0.7h7.3c0.4,0,0.7,0.3,0.7,0.7
				S622.5,236.3,622.1,236.3L622.1,236.3z"/>
			<path class="st21" d="M622.1,233.4H617c-0.4,0-0.7-0.3-0.7-0.7s0.3-0.7,0.7-0.7h5.1c0.4,0,0.7,0.3,0.7,0.7
				C622.8,233.1,622.5,233.4,622.1,233.4L622.1,233.4z"/>
		</g>
	</g>
</g>
<g>
	<g>
		<defs>
			<rect id="SVGID_00000081608280429055916830000007339799768821615762_" x="579.8" y="433.8" width="44.7" height="44.7"/>
		</defs>
		<clipPath id="SVGID_00000043449225982932387380000014701279869164105602_">
			<use xlink:href="#SVGID_00000081608280429055916830000007339799768821615762_"  style="overflow:visible;"/>
		</clipPath>
		<g style="clip-path:url(#SVGID_00000043449225982932387380000014701279869164105602_);">
			<path class="st19" d="M611.2,473.7l-9,2.1l-9-2.1l1.2-5.2l7.4-2.7l8.2,2.7l0.4,1.7L611.2,473.7z"/>
			<path class="st3" d="M624.5,439.8v24.8c0,2.1-1.7,3.9-3.9,3.9h-36.9c-2.1,0-3.9-1.7-3.9-3.9v-24.8H624.5z"/>
			<path class="st17" d="M624.5,464.1v0.5c0,2.1-1.7,3.9-3.9,3.9h-36.9c-2.1,0-3.9-1.7-3.9-3.9v-0.5H624.5z"/>
			<path class="st4" d="M620.8,436.6h-37.4c-2,0-3.7,1.6-3.7,3.7v4.1c0,2.5,2,4.5,4.5,4.5s4.5-2,4.5-4.5c0,2.5,2,4.5,4.5,4.5
				s4.5-2,4.5-4.5c0,2.5,2,4.5,4.5,4.5s4.5-2,4.5-4.5c0,2.5,2,4.5,4.5,4.5s4.5-2,4.5-4.5c0,2.5,2,4.5,4.5,4.5s4.5-2,4.5-4.5v-4.1
				C624.5,438.3,622.9,436.6,620.8,436.6L620.8,436.6z"/>
			<path class="st8" d="M620.8,434.5h-37.4c-2,0-3.7,1.6-3.7,3.7v4.1c0,2.5,2,4.5,4.5,4.5s4.5-2,4.5-4.5c0,2.5,2,4.5,4.5,4.5
				s4.5-2,4.5-4.5c0,2.5,2,4.5,4.5,4.5s4.5-2,4.5-4.5c0,2.5,2,4.5,4.5,4.5s4.5-2,4.5-4.5c0,2.5,2,4.5,4.5,4.5s4.5-2,4.5-4.5v-4.1
				C624.5,436.1,622.9,434.5,620.8,434.5L620.8,434.5z"/>
			<path class="st9" d="M585.3,446.6L585.3,446.6c-0.2,0-0.3,0-0.4,0s-0.2,0-0.3,0s-0.2,0-0.2,0l0,0h-0.1c-2.5,0-4.5-2-4.5-4.5V438
				c0-1.4,0.8-2.7,2.1-3.3v7.3C581.8,444.3,583.3,446.1,585.3,446.6z"/>
			<path class="st5" d="M593.2,446.7c-2.5,0-4.5-2-4.5-4.5v-7.7h8.9v7.7C597.7,444.7,595.7,446.7,593.2,446.7z"/>
			<path class="st13" d="M590.8,442.2v-7.7h-2.1v7.7c0,2.5,2,4.5,4.5,4.5c0.4,0,0.7,0,1-0.1C592.3,446.1,590.8,444.3,590.8,442.2z"
				/>
			<path class="st9" d="M599.7,442.2v-7.7h-2.1v7.7c0,2.5,2,4.5,4.5,4.5c0.4,0,0.7,0,1-0.1C601.2,446.1,599.7,444.3,599.7,442.2
				L599.7,442.2z"/>
			<path class="st9" d="M617.6,442.2v-7.7h-2.1v7.7c0,2.5,2,4.5,4.5,4.5c0.4,0,0.7,0,1-0.1C619.1,446.1,617.6,444.3,617.6,442.2z"/>
			<path class="st5" d="M611.1,446.7c-2.5,0-4.5-2-4.5-4.5v-7.7h8.9v7.7C615.6,444.7,613.6,446.7,611.1,446.7L611.1,446.7z"/>
			<path class="st13" d="M608.7,442.2v-7.7h-2.1v7.7c0,2.5,2,4.5,4.5,4.5c0.4,0,0.7,0,1-0.1C610.1,446.1,608.7,444.3,608.7,442.2z"
				/>
			<path class="st17" d="M611.2,473.7h-13.8l0.8-3.5h12.1L611.2,473.7z"/>
			<path class="st19" d="M616.5,476.5v1.2h-28.7v-1.2c0-1.6,1.3-2.9,2.9-2.9h22.9C615.2,473.7,616.5,474.9,616.5,476.5L616.5,476.5z
				"/>
			<path class="st17" d="M616.5,476.5v1.2h-23.7v-1.2c0-1.6,1.3-2.9,2.9-2.9h18C615.2,473.7,616.5,474.9,616.5,476.5L616.5,476.5z"
				/>
			<path class="st6" d="M599.8,451.6l-3.4-1.8h-9.3l-3.4,1.8l1.8,3.4l1.6-0.8v6.6h9.3v-6.6l1.5,0.8L599.8,451.6z"/>
			<path class="st7" d="M588.6,449.8c0,1.8,1.4,3.2,3.2,3.2s3.2-1.4,3.2-3.2"/>
			<path class="st17" d="M606.8,453.1h-3.4c-0.4,0-0.7-0.3-0.7-0.7s0.3-0.7,0.7-0.7h3.4c0.4,0,0.7,0.3,0.7,0.7
				S607.1,453.1,606.8,453.1z"/>
			<path class="st17" d="M620.4,453.1h-11c-0.4,0-0.7-0.3-0.7-0.7s0.3-0.7,0.7-0.7h11c0.4,0,0.7,0.3,0.7,0.7
				S620.8,453.1,620.4,453.1z"/>
			<path class="st17" d="M606.8,456.2h-3.4c-0.4,0-0.7-0.3-0.7-0.7c0-0.4,0.3-0.7,0.7-0.7h3.4c0.4,0,0.7,0.3,0.7,0.7
				C607.4,455.9,607.1,456.2,606.8,456.2z"/>
			<path class="st17" d="M620.4,456.2h-11c-0.4,0-0.7-0.3-0.7-0.7c0-0.4,0.3-0.7,0.7-0.7h11c0.4,0,0.7,0.3,0.7,0.7
				C621.1,455.9,620.8,456.2,620.4,456.2z"/>
			<path class="st17" d="M606.8,459.3h-3.4c-0.4,0-0.7-0.3-0.7-0.7c0-0.4,0.3-0.7,0.7-0.7h3.4c0.4,0,0.7,0.3,0.7,0.7
				C607.4,459,607.1,459.3,606.8,459.3z"/>
			<path class="st17" d="M620.4,459.3h-11c-0.4,0-0.7-0.3-0.7-0.7c0-0.4,0.3-0.7,0.7-0.7h11c0.4,0,0.7,0.3,0.7,0.7
				C621.1,459,620.8,459.3,620.4,459.3z"/>
		</g>
	</g>
</g>
<g>
	<g>
		<ellipse cx="338.7" cy="441.1" rx="174.6" ry="1.9"/>
	</g>
	<path class="st26" d="M209.8,216h258.9c14.9,0,27,12.1,27,27v181.8c0,1.7-1.3,3-3,3H185.8c-1.7,0-3-1.3-3-3V243
		C182.8,228.1,194.9,216,209.8,216z"/>
	<path d="M183.7,238.9c0-12.2,9.9-22,22-22h267c12.1,0,22,9.8,22,22v181.8h-311L183.7,238.9L183.7,238.9z"/>
	<path class="st1" d="M190,248c0-13.3,10.7-24,24-24h249c13.3,0,24,10.7,24,24v173H190V248z"/>
	<rect x="286.1" y="293.9" class="st27" width="104.7" height="51.6"/>
	<path class="st28" d="M144,429.3c0-1.1,0.9-2,2-2h385c1.1,0,2,0.9,2,2v4.9H144V429.3z"/>
	
		<linearGradient id="SVGID_00000134952990179074295570000005108169438024260515_" gradientUnits="userSpaceOnUse" x1="144" y1="836.75" x2="533" y2="836.75" gradientTransform="matrix(1 0 0 1 0 -406)">
		<stop  offset="0" style="stop-color:#0D1012"/>
		<stop  offset="2.953450e-02" style="stop-color:#CAD4DB"/>
		<stop  offset="6.250000e-02" style="stop-color:#242729"/>
		<stop  offset="0.1336" style="stop-color:#A3ACB1"/>
		<stop  offset="0.866" style="stop-color:#A3ACB1"/>
		<stop  offset="0.9419" style="stop-color:#242729"/>
		<stop  offset="0.9713" style="stop-color:#CAD4DB"/>
		<stop  offset="0.9964" style="stop-color:#0D1012"/>
	</linearGradient>
	<path style="fill:url(#SVGID_00000134952990179074295570000005108169438024260515_);" d="M144,429.3c0-1.1,0.9-2,2-2h385
		c1.1,0,2,0.9,2,2v4.9H144V429.3z"/>
	<path class="st30" d="M144,434.2h389l0,0c-15.3,3.1-30.8,4.6-46.4,4.6H186.2C172,438.8,157.9,437.3,144,434.2L144,434.2z"/>
	
		<linearGradient id="SVGID_00000159462190749996751280000009649066317360230792_" gradientUnits="userSpaceOnUse" x1="338.5" y1="840.2" x2="338.5" y2="844.831" gradientTransform="matrix(1 0 0 1 0 -406)">
		<stop  offset="0" style="stop-color:#7A7F83"/>
		<stop  offset="1" style="stop-color:#0B0B0E"/>
	</linearGradient>
	<path style="fill:url(#SVGID_00000159462190749996751280000009649066317360230792_);" d="M144,434.2h389l0,0
		c-15.3,3.1-30.8,4.6-46.4,4.6H186.2C172,438.8,157.9,437.3,144,434.2L144,434.2z"/>
	<path class="st32" d="M306.5,427.3c0.2,3,2.7,5.4,5.8,5.4h52.9c3.1,0,5.6-2.4,5.8-5.4H306.5z"/>
	
		<linearGradient id="SVGID_00000180349590527394326780000016967515092126655410_" gradientUnits="userSpaceOnUse" x1="312.838" y1="836" x2="365.708" y2="836" gradientTransform="matrix(1 0 0 1 0 -406)">
		<stop  offset="0" style="stop-color:#3C3C3C"/>
		<stop  offset="0.3175" style="stop-color:#3C3C3C;stop-opacity:0"/>
		<stop  offset="0.6606" style="stop-color:#3C3C3C;stop-opacity:0"/>
		<stop  offset="1" style="stop-color:#444444"/>
	</linearGradient>
	<path style="fill-rule:evenodd;clip-rule:evenodd;fill:url(#SVGID_00000180349590527394326780000016967515092126655410_);" d="
		M306.5,427.3c0.2,3,2.7,5.4,5.8,5.4h52.9c3.1,0,5.6-2.4,5.8-5.4H306.5z"/>
</g>
<g>
	<g>
		<g>
			<path class="st34" d="M310.8,328.8c-1,0.8-1.9,1.3-2.7,1.6c-0.8,0.3-1.8,0.4-2.9,0.4c-2.8,0-5.6-1.2-7.4-3.2
				c-1.9-2-2.6-4.6-2.6-8.7v-13.7h6.1v13.3c0,2.7,0.4,4.5,1.2,5.4s1.9,1.3,3.2,1.3c1.8,0,3.1-0.6,4-1.7c0.7-0.9,1.1-2.7,1.1-5.5
				v-12.8h6.1v25.5h-6.1L310.8,328.8L310.8,328.8z"/>
			<path class="st34" d="M322.6,305.3h6.1v2.4c2-1.6,4.2-2.3,6.4-2.3c3.7,0,6.8,1.4,9.3,4.2c2.2,2.4,3.2,5.3,3.2,8.6
				c0,3.8-1.4,7-4.2,9.5c-2.4,2.1-5.2,3.2-8.4,3.2c-2.2,0-4.4-0.8-6.4-2.3v14.1h-6.1v-37.4H322.6z M330.1,313.4
				c-0.9,1.2-1.4,2.8-1.4,4.8c0,2.2,0.6,3.9,1.9,5.3c1.2,1.2,2.7,1.8,4.6,1.8c2,0,3.7-0.8,4.9-2.4c0.9-1.2,1.4-2.8,1.4-4.7
				c0-2.2-0.6-4-1.9-5.3c-1.2-1.2-2.7-1.9-4.5-1.9C333,311,331.3,311.8,330.1,313.4z"/>
			<path class="st34" d="M351.9,330.9v-36.7h6.1v13.6c2-1.6,4.2-2.3,6.4-2.3c3.7,0,6.8,1.4,9.3,4.2c2.2,2.4,3.2,5.3,3.2,8.6
				c0,3.9-1.4,7.1-4.2,9.6c-2.4,2.1-5.2,3.2-8.4,3.2c-2.2,0-4.4-0.8-6.4-2.3v2.3h-6V330.9z M359.4,313.4c-0.9,1.2-1.4,2.8-1.4,4.7
				c0,2.2,0.6,4,1.9,5.3c1.2,1.2,2.7,1.9,4.5,1.9c2.1,0,3.8-0.8,5-2.4c0.9-1.2,1.4-2.8,1.4-4.7c0-2.2-0.6-4-1.9-5.3
				c-1.2-1.2-2.8-1.8-4.7-1.8C362.2,311,360.6,311.8,359.4,313.4z"/>
			<path class="st34" d="M404.8,330.9h-6.1v-2.3c-2,1.6-4.2,2.3-6.4,2.3c-3.7,0-6.8-1.4-9.3-4.2c-2.2-2.4-3.2-5.3-3.2-8.6
				c0-3.8,1.4-7,4.2-9.5c2.4-2.1,5.2-3.2,8.4-3.2c2.2,0,4.4,0.8,6.4,2.3v-1.5h6.1v24.7H404.8z M387.3,313.4
				c-0.9,1.2-1.4,2.8-1.4,4.7c0,2.2,0.6,4,1.9,5.3c1.2,1.2,2.7,1.9,4.5,1.9c2.1,0,3.8-0.8,5-2.4c0.9-1.2,1.4-2.8,1.4-4.8
				c0-2.2-0.6-3.9-1.9-5.3c-1.2-1.2-2.7-1.8-4.6-1.8C390.2,311,388.6,311.8,387.3,313.4z"/>
			<path class="st34" d="M421.9,313.4c-1.4-2-2.2-2.6-3.6-2.6c-1.5,0-2.5,0.8-2.5,1.9c0,0.5,0.2,0.9,0.5,1.2
				c0.3,0.2,1.2,0.6,2.5,1.2l2.2,0.8c1.6,0.6,2.8,1.3,3.7,2.1c1.4,1.2,2.1,2.8,2.1,4.7c0,2.4-0.9,4.4-2.8,6
				c-1.7,1.4-3.7,2.2-6.1,2.2c-3.2,0-5.7-1.2-7.5-3.7c-0.6-0.9-1.3-2.1-1.9-3.8l5-2c0.8,1.5,1.4,2.5,2.1,3.1
				c0.6,0.6,1.4,0.8,2.3,0.8c1.7,0,2.8-1,2.8-2.5c0-0.5-0.2-0.9-0.6-1.2c-0.4-0.3-1.2-0.7-2.5-1.2l-2.4-0.9
				c-3.6-1.4-5.3-3.6-5.3-6.6c0-2.3,0.9-4.2,2.7-5.6c1.6-1.3,3.6-1.9,5.8-1.9c3.8,0,6.3,1.7,8.3,5.7L421.9,313.4z"/>
			<path class="st34" d="M435.9,320.4c0.3,1.3,0.9,2.3,1.5,3c1.2,1.2,2.7,1.9,4.4,1.9c2.1,0,3.8-0.7,5.1-2c0.2-0.3,0.7-0.8,1.2-1.7
				l5.2,2.2c-1.2,2-2.4,3.4-3.5,4.3c-2.3,1.8-4.9,2.7-7.9,2.7c-3.8,0-6.9-1.4-9.2-4.2c-2.1-2.4-3.1-5.3-3.1-8.6
				c0-2.3,0.5-4.4,1.6-6.3c1.1-2.1,2.6-3.7,4.5-4.8c1.8-1.1,3.8-1.6,6-1.6c3.5,0,6.3,1.2,8.6,3.7c2.2,2.5,3.3,5.7,3.3,9.6
				c0,0.3,0,0.9,0,1.7L435.9,320.4L435.9,320.4z M447.3,315.9c-1.1-3.3-3-5-5.7-5c-2.9,0-4.9,1.8-5.7,5H447.3z"/>
		</g>
		<path class="st35" d="M282,340l-3.8-45.9c-0.3-3.3-3.1-5.8-6.2-5.8h-38.4c-3.2,0-5.9,2.6-6.2,5.8l-3.8,45.9c-0.4,4.4,2.4,8,6.2,8
			h46C279.6,348.1,282.4,344.4,282,340z M252.8,338c-11,0-19.9-8.9-20-19.9l0,0v-10h10v10h0.1c0,5.5,4.5,9.9,9.9,9.9
			c5.5,0,9.9-4.4,9.9-9.9l0,0v-19.9h10v18.7c0,0.4,0,0.8,0,1.2C272.7,329.1,263.8,338,252.8,338z"/>
	</g>
	<path class="st35" d="M351.9,366.1h97.5c2.3,0,4.1-1.8,4.1-4.1v-18.1c0-2.3-1.8-4.1-4.1-4.1h-97.5c-2.3,0-4.1,1.8-4.1,4.1V362
		C347.7,364.2,349.6,366.1,351.9,366.1z"/>
	<text transform="matrix(1 0 0 1 376.863 362.0434)" class="st36 st37 st38">SME</text>
</g>
</svg>
