<?xml version="1.0" encoding="UTF-8"?>
<svg width="35px" height="48px" viewBox="0 0 35 48" version="1.1"
    xmlns="http://www.w3.org/2000/svg"
    xmlns:xlink="http://www.w3.org/1999/xlink">
    <title>hydrant_ic</title>
    <defs>
        <filter id="filter-1">
            <feColorMatrix in="SourceGraphic" type="matrix" values="0 0 0 0 0.200474 0 0 0 0 0.517606 0 0 0 0 0.413028 0 0 0 1.000000 0"></feColorMatrix>
        </filter>
    </defs>
    <g id="Page-1" stroke="none" stroke-width="1" fill="none" fill-rule="evenodd">
        <g filter="url(#filter-1)" id="hydrant_ic">
            <g>
                <g id="location-pin-svgrepo-com" fill="#000000" fill-rule="nonzero">
                    <path d="M17.3350717,0 L17.3350717,0 C7.74446941,0 0,7.75021908 0,17.3479417 C0,20.6943631 1.06820268,23.8897308 2.55439771,26.5156258 L13.8518021,46.0827794 C14.5600669,47.3609265 15.9882075,48 17.3350717,48 C18.6820521,48 20.0404111,47.3609265 20.8183413,46.0827794 L32.1157457,26.5272454 C33.6135516,23.9011179 34.6701434,20.7638478 34.6701434,17.3593288 C34.6701434,7.7618386 26.925674,0 17.3350717,0 Z M17.3591528,30.7716718 C9.83215018,30.7716718 3.68509804,24.6246197 3.68509804,17.0976171 C3.68509804,9.57061445 9.83215018,3.42356231 17.3591528,3.42356231 C24.8861554,3.42356231 31.0332076,9.57061445 31.0332076,17.0976171 C31.0332076,24.6497097 24.8861554,30.7716718 17.3591528,30.7716718 Z" id="Shape"></path>
                </g>
                <g id="hose-watering-tool-for-gardening-svgrepo-com" transform="translate(17.132231, 16.944000) scale(-1, 1) translate(-17.132231, -16.944000) translate(9.000000, 7.944000)" fill="#000000" fill-rule="nonzero">
                    <path d="M8.25014311,9.97027665 C8.35113526,10.089279 8.52784736,10.1024105 8.64483985,9.9996834 L8.72947752,9.92547885 C8.84647001,9.82275173 8.85941194,9.64300382 8.7584198,9.52400147 L7.3696732,7.88658939 C7.26868105,7.76758704 7.09200114,7.75442277 6.97500865,7.85682243 L6.89033879,7.93105972 C6.7733463,8.0337541 6.76043656,8.21350201 6.8614287,8.33250436 L8.25014311,9.97027665 Z" id="Path"></path>
                    <path d="M8.96747305,9.47385124 L12.6801173,6.83486691 L12.8050909,6.98010513 C12.9073183,7.09881761 13.0861592,7.11194981 13.2045827,7.00947292 L13.2902882,6.93544912 C13.4087117,6.83297222 13.4217793,6.65369481 13.3195845,6.53498233 L11.026034,3.86976627 C10.9238392,3.75105379 10.7449657,3.73792159 10.6265422,3.84039849 L10.5408367,3.91442229 C10.4224133,4.01689919 10.4093456,4.19617659 10.511573,4.31488907 L10.636514,4.46012729 L7.48760331,7.75415363 L8.96747305,9.47385124 Z" id="Path"></path>
                    <path d="M2.96416683,16.3813824 L3.0294098,16.3826159 C3.62160026,16.4083554 3.88786827,16.6690944 4.08174517,16.8596581 C4.21099644,16.9866032 4.28367997,17.0530133 4.39522336,17.0623288 C4.65249122,17.0828101 4.79509651,16.9599223 4.9805906,16.7988309 C5.20959083,16.5995359 5.49883035,16.3484696 6.06525503,16.3959563 C6.12832107,16.4012146 6.17959269,16.4133216 6.2324239,16.4245198 C6.16718093,14.7574524 6.29207833,11.7603664 7.83471074,10.1891813 L6.67950722,8.92839669 C6.67950722,8.92839669 2.06187731,11.2898158 1.68595041,17.1598017 C1.8860332,16.8801394 2.25360977,16.3813824 2.96416683,16.3813824 Z M6.91347866,10.2624401 C6.9765447,10.3204759 6.98089857,10.4185654 6.92280373,10.4818919 C6.91783253,10.4871502 6.78016595,10.6420745 6.5742022,10.9288451 C6.06467018,11.6383874 5.12573022,13.1803923 4.65655266,15.4455721 C4.61148692,15.6628167 4.57080754,15.8862933 4.53506687,16.1166186 C4.52327244,16.1932856 4.45708722,16.2482378 4.38190184,16.2482378 C4.37413637,16.2482378 4.36604598,16.2475886 4.35798808,16.2463552 C4.27347763,16.2333393 4.21505788,16.1541731 4.22811947,16.0694565 C4.79824818,12.3665609 6.61679859,10.3555959 6.69412841,10.2717882 C6.75254816,10.2087538 6.85070504,10.2050211 6.91347866,10.2624401 Z M6.46980695,9.83444263 C6.54096338,9.78633917 6.63759316,9.80555459 6.68545317,9.87634653 C6.73331318,9.94739813 6.71495547,10.0439296 6.64383153,10.091741 C6.63791808,10.0957983 6.51428784,10.1820729 6.32037845,10.3403729 C5.57252112,10.9515011 3.7440608,12.685011 3.19008037,15.3347588 C3.16272251,15.4654042 3.13227796,15.5939073 3.11148339,15.7289671 C3.09968896,15.8056015 3.03350374,15.8605537 2.95831836,15.8605537 C2.95055288,15.8605537 2.9424625,15.859937 2.9344046,15.8587036 C2.84989415,15.8456553 2.79150689,15.7665215 2.80453599,15.6817724 C3.3777189,11.9586877 6.43903748,9.85521606 6.46980695,9.83444263 Z" id="Shape"></path>
                    <path d="M8.20426086,17.9522803 C8.3576447,17.565765 8.50164697,17.0139668 8.39023674,16.8300341 C8.37595338,16.806413 8.35485295,16.7840591 8.29648594,16.7797052 L8.26451068,16.7784706 C8.02487481,16.7784706 7.80166481,16.9903457 7.58559648,17.1951053 C7.33852677,17.4293669 7.07525842,17.6701592 6.75927148,17.6409496 C6.52271951,17.6176534 6.50720259,17.3775109 6.49821056,17.2339648 C6.48545292,17.0292052 6.46964384,16.849009 6.21384179,16.767586 C6.15612402,16.749261 6.09061533,16.7343475 6.00523977,16.7268745 C5.57531055,16.6908418 5.36761747,16.8670091 5.15096483,17.0552632 C4.95197161,17.2283438 4.72629448,17.4259228 4.33704038,17.3939515 C4.10889613,17.3749766 3.96826993,17.2367265 3.83231828,17.1031227 C3.64793305,16.9220167 3.45763971,16.7349649 2.98518502,16.7144629 L2.9333429,16.7135207 C2.37239629,16.7135207 2.07627621,17.1283359 1.89903266,17.3762438 C1.82297376,17.4827824 1.77268983,17.5536457 1.70471401,17.5884438 C1.68173078,17.6002381 1.65845539,17.6067364 1.63518,17.6151516 C1.5817797,17.634094 1.5283794,17.6471229 1.47468694,17.6471229 C1.21518421,17.6471229 1.02209911,17.430894 0.834922135,17.2217806 C0.644628787,17.0089307 0.448135162,16.7889977 0.197916616,16.7889977 C0.122799112,16.7889977 0.0914406384,16.8178824 0.0709569977,16.8464747 C-0.0619107386,17.0276131 0.0135313868,17.567617 0.120007364,17.9531901 L8.20426086,17.9531901 L8.20426086,17.9522803 Z" id="Path"></path>
                    <polygon id="Path" points="13.2908954 5.60608264 16.2644628 3.00018698 16.2644628 0.0027768595 11.8512397 3.88775469"></polygon>
                </g>
            </g>
        </g>
    </g>
</svg>