<?xml version="1.0" standalone="no"?>
<!DOCTYPE svg PUBLIC "-//W3C//DTD SVG 20010904//EN"
 "http://www.w3.org/TR/2001/REC-SVG-20010904/DTD/svg10.dtd">
<svg version="1.0" xmlns="http://www.w3.org/2000/svg"
 width="1001.000000pt" height="1001.000000pt" viewBox="0 0 1001.000000 1001.000000"
 preserveAspectRatio="xMidYMid meet">
<metadata>
Created by potrace 1.16, written by Peter Selinger 2001-2019
</metadata>
<g transform="translate(0.000000,1001.000000) scale(0.100000,-0.100000)"
fill="#000000" stroke="none">
<path d="M3754 7931 c-143 -35 -258 -162 -284 -312 -6 -35 -63 -694 -126
-1464 -105 -1263 -115 -1407 -105 -1475 22 -145 107 -272 220 -327 l56 -28
1490 0 1490 0 56 28 c113 55 198 182 220 327 10 68 0 212 -105 1475 -63 770
-120 1429 -126 1464 -22 125 -101 231 -215 287 l-60 29 -1240 2 c-682 0 -1254
-2 -1271 -6z m2459 -1163 c3 -720 2 -757 -23 -881 -121 -595 -687 -1014 -1291
-957 -289 27 -546 148 -749 350 -200 200 -320 455 -350 741 -5 56 -10 240 -10
410 l0 309 305 0 305 0 0 -284 c0 -289 8 -401 37 -491 64 -204 221 -352 429
-405 141 -36 285 -17 424 56 126 66 223 183 283 341 21 57 22 67 25 721 l3
662 304 0 305 0 3 -572z"/>
</g>
</svg>
