<?xml version="1.0" encoding="UTF-8"?>
<svg width="35px" height="48px" viewBox="0 0 35 48" version="1.1" xmlns="http://www.w3.org/2000/svg" xmlns:xlink="http://www.w3.org/1999/xlink">
    <title>water_ic</title>
    <defs>
        <filter id="filter-1">
            <feColorMatrix in="SourceGraphic" type="matrix" values="0 0 0 0 0.274658 0 0 0 0 0.664729 0 0 0 0 0.956918 0 0 0 1.000000 0"></feColorMatrix>
        </filter>
    </defs>
    <g id="Page-1" stroke="none" stroke-width="1" fill="none" fill-rule="evenodd">
        <g filter="url(#filter-1)" id="water_ic">
            <g>
                <g id="location-pin-svgrepo-com" fill="#000000" fill-rule="nonzero">
                    <path d="M17.3350717,0 L17.3350717,0 C7.74446941,0 0,7.75021908 0,17.3479417 C0,20.6943631 1.06820268,23.8897308 2.55439771,26.5156258 L13.8518021,46.0827794 C14.5600669,47.3609265 15.9882075,48 17.3350717,48 C18.6820521,48 20.0404111,47.3609265 20.8183413,46.0827794 L32.1157457,26.5272454 C33.6135516,23.9011179 34.6701434,20.7638478 34.6701434,17.3593288 C34.6701434,7.7618386 26.925674,0 17.3350717,0 Z M17.3591528,30.7716718 C9.83215018,30.7716718 3.68509804,24.6246197 3.68509804,17.0976171 C3.68509804,9.57061445 9.83215018,3.42356231 17.3591528,3.42356231 C24.8861554,3.42356231 31.0332076,9.57061445 31.0332076,17.0976171 C31.0332076,24.6497097 24.8861554,30.7716718 17.3591528,30.7716718 Z" id="Shape"></path>
                </g>
                <g id="water-drop-svgrepo-com" transform="translate(10.513690, 6.383312)" fill="#000000" fill-rule="nonzero">
                    <path d="M10.3843578,4.03582333 C8.79421404,1.89089838 7.18129307,0.155571718 7.16507953,0.13831495 C7.08283821,0.050118522 6.96773513,0 6.84719857,0 C6.72661853,0 6.61147199,0.0500750541 6.52927413,0.13831495 C6.51314753,0.155571718 4.90018309,1.89089838 3.31003932,4.03582333 C1.13790344,6.96569214 0.0365565282,9.24006459 0.0365565282,10.7956514 C0.0365565282,14.5511065 3.09178685,17.6065542 6.84719857,17.6065542 C10.6026538,17.6065542 13.6578841,14.5511935 13.6578841,10.7956514 C13.6578841,9.24006459 12.5564937,6.96573561 10.3843578,4.03582333 Z M7.52738472,15.4025129 C7.17038262,15.4868841 6.80233966,15.5297 6.43364469,15.5297 C3.81278938,15.5297 1.68055707,13.3973808 1.68055707,10.776482 C1.68055707,10.4151766 1.7917915,9.7605061 2.32170902,8.69375965 C2.37495723,8.58652427 2.49758026,8.53331953 2.61237906,8.56735492 C2.72709092,8.60147724 2.80059519,8.71327675 2.78655505,8.83211807 C2.77438403,8.93474585 2.76825505,9.03137506 2.76825505,9.11931068 C2.76825505,11.9285995 4.76630187,14.3689325 7.51921275,14.9215837 C7.63253364,14.9444044 7.71481843,15.0430766 7.71681328,15.1587013 C7.71881748,15.2744563 7.63996665,15.375867 7.52738472,15.4025129 Z" id="Shape"></path>
                </g>
            </g>
        </g>
    </g>
</svg>